<svg xmlns="http://www.w3.org/2000/svg" xmlns:svg="http://www.w3.org/2000/svg" id="svg4424" width="45" height="45" version="1.1" viewBox="0 0 45 45"><metadata id="metadata4429"/><g id="layer1" transform="translate(0,-1007.3622)"><path id="rect4138" fill="none" fill-opacity="1" stroke="#b7b7b7" stroke-dasharray="none" stroke-linecap="round" stroke-linejoin="round" stroke-miterlimit="4" stroke-opacity="1" stroke-width="1.5" d="M 24.484375 9.9902344 A 10.611456 10.611456 0 0 0 18.777344 11.384766 A 10.611456 10.611456 0 0 0 13.925781 23.675781 L 4.609375 34.765625 A 21.713575 21.713575 0 0 0 12.830078 41.912109 L 22.011719 30.982422 A 10.611456 10.611456 0 0 0 29.347656 29.787109 A 10.611456 10.611456 0 0 0 34.630859 21.511719 L 27.916016 25.367188 C 26.093522 26.413088 23.786878 25.79105 22.740234 23.96875 L 20.472656 20.025391 C 19.42592 18.203291 20.052884 15.894256 21.875 14.847656 L 28.578125 10.996094 A 10.611456 10.611456 0 0 0 24.484375 9.9902344 z" opacity="1" transform="translate(0,1007.3622)"/><path id="path4368" fill="#b7b7b7" fill-opacity="1" stroke="none" stroke-dasharray="none" stroke-linecap="round" stroke-linejoin="round" stroke-miterlimit="4" stroke-opacity="1" stroke-width="3" d="m 22.5,1007.3622 a 22.499916,22.499916 0 0 0 -22.5,22.5 22.499916,22.499916 0 0 0 22.5,22.5 22.499916,22.499916 0 0 0 22.5,-22.5 22.499916,22.499916 0 0 0 -22.5,-22.5 z m 0,1.3289 A 21.170375,21.170375 0 0 1 43.67116,1029.8622 21.170375,21.170375 0 0 1 22.5,1051.0318 21.170375,21.170375 0 0 1 1.33042,1029.8622 21.170375,21.170375 0 0 1 22.5,1008.6911 Z" opacity="1"/><path id="path4370" fill="#b7b7b7" fill-opacity="1" stroke="none" stroke-dasharray="none" stroke-linecap="round" stroke-linejoin="round" stroke-miterlimit="4" stroke-opacity="1" stroke-width="3" d="m 22.5,1007.3622 a 22.499916,22.499916 0 0 0 -22.5,22.5 22.499916,22.499916 0 0 0 22.5,22.5 22.499916,22.499916 0 0 0 22.5,-22.5 22.499916,22.499916 0 0 0 -22.5,-22.5 z m 0,1.3289 A 21.170375,21.170375 0 0 1 43.67116,1029.8622 21.170375,21.170375 0 0 1 22.5,1051.0318 21.170375,21.170375 0 0 1 1.33042,1029.8622 21.170375,21.170375 0 0 1 22.5,1008.6911 Z" opacity="1"/></g></svg>