<svg xmlns="http://www.w3.org/2000/svg" xmlns:svg="http://www.w3.org/2000/svg" id="svg2" width="48" height="48" version="1.1" viewBox="0 0 45 45"><metadata id="metadata7"/><g id="layer1" transform="translate(0,-1007.3622)"><path id="path4136" fill="#b7b7b7" fill-opacity="1" stroke="none" stroke-dasharray="none" stroke-linecap="round" stroke-linejoin="round" stroke-miterlimit="4" stroke-opacity="1" stroke-width="2" d="m 20.652092,1014.8622 v 2.5904 a 12.562255,12.562249 0 0 0 -10.566441,10.5617 H 7.4999999 v 3.696 h 2.5903821 a 12.562255,12.562249 0 0 0 10.56171,10.5662 v 2.5857 h 3.695814 v -2.5901 A 12.562255,12.562249 0 0 0 34.91435,1031.7103 H 37.5 v -3.696 h -2.590167 a 12.562255,12.562249 0 0 0 -10.561927,-10.5662 v -2.5859 z m 0,4.6892 v 1.2283 h 3.695814 v -1.2222 a 10.478374,10.47837 0 0 1 8.462873,8.4568 h -1.22821 v 3.696 h 1.22219 a 10.478374,10.47837 0 0 1 -8.456853,8.4629 v -1.2284 h -3.695814 v 1.2224 a 10.478374,10.47837 0 0 1 -8.463086,-8.4569 h 1.228425 v -3.696 h -1.222406 a 10.478374,10.47837 0 0 1 8.457067,-8.4629 z m -4.344752,4.1181 v 12.3854 h 12.38532 v -7.4312 h -7.431192 v 2.477 h 4.954128 v 2.4771 h -7.431193 v -7.4312 h 9.908257 v -2.4771 z" opacity="1"/></g></svg>