<svg xmlns="http://www.w3.org/2000/svg" xmlns:svg="http://www.w3.org/2000/svg" id="svg8" width="256" height="256" version="1.1" viewBox="0 0 67.733 67.733"><metadata id="metadata5"/><g id="layer1" transform="translate(0,-229.26665)"><g id="g4514" stroke-dasharray="none" stroke-miterlimit="4" stroke-width=".131" transform="matrix(1.0232455,0,0,1.0232455,-17.568953,-5.3365409)"><path id="path4250" fill="#838383" fill-opacity="1" fill-rule="evenodd" stroke="#000c00" stroke-dasharray="none" stroke-linecap="butt" stroke-linejoin="miter" stroke-miterlimit="4" stroke-opacity="1" stroke-width=".131" d="m 49.201748,230.37125 c -1.077454,-0.0139 -1.68855,0.19665 -1.733469,0.21265 l -0.140445,11.28672 0.0062,12.24314 3.713234,-0.0632 c -9.8e-5,-0.05 -0.02536,-21.30374 -0.04362,-23.46593 -0.692346,-0.15002 -1.297355,-0.20688 -1.801905,-0.2134 z"/><path id="path4232" fill="#e8e8e8" fill-opacity="1" fill-rule="evenodd" stroke="#000c00" stroke-dasharray="none" stroke-linecap="butt" stroke-linejoin="miter" stroke-miterlimit="4" stroke-opacity="1" stroke-width=".131" d="m 47.327929,241.87069 0.145855,-11.71733 c 0,0 0.07428,-0.56784 -0.632052,-0.41327 -0.968727,0.21199 -4.691799,1.38566 -4.691799,1.38566 l -1.021013,0.0972 c 0,0 -1.628757,8.24103 -0.291717,14.3428 1.337039,6.10177 0,12.66542 0,12.66542 l -1.166872,5.4454 c 0,0 1.823237,7.04985 8.459819,7.94931 6.636586,0.89947 10.477538,-4.83765 10.477538,-4.83765 l 0.559125,-0.94809 -0.559125,-17.77048 c 0,0 0.316028,-8.50844 -0.729294,-15.92294 l -1.025601,-0.30272 -5.343574,-2.15257 c 0,0 -0.528738,-0.26741 -0.510504,0.40719 0.0182,0.6746 0.04862,12.4284 0.04862,12.4284 l -1.586215,0.0304 v 0.58343 c 0,0 0.801752,-0.0916 0.960235,0.59522 0.01213,0.82654 0.0061,6.78281 0.0061,6.78281 0,0 -0.03762,0.27587 -0.955322,0.31234 l 10e-4,1.44405 H 49.02947 v -1.45859 c -0.342321,0.003 -0.835613,-0.0999 -0.826535,-0.2978 0.0061,-0.28563 -0.03327,-6.83403 -0.03327,-6.83403 0,0 0.04541,-0.544 0.841558,-0.55615 v -0.56521 h -1.677378 z"/><path id="path4234" fill="#c8c8c8" fill-opacity="1" fill-rule="evenodd" stroke="#000c00" stroke-dasharray="none" stroke-linecap="butt" stroke-linejoin="miter" stroke-miterlimit="4" stroke-opacity="1" stroke-width=".131" d="m 40.897834,231.31996 -0.146274,0.0797 -2.022067,2.10197 c 0,0 -1.291671,8.03551 -0.633222,10.04848 l 0.094,2.47385 0.291608,12.40709 c 0,0 0.790163,4.51497 1.175825,5.03232 0.01177,0.0158 0.02954,0.0245 0.05246,0.0269 l 1.127129,-5.25906 c 0,0 1.337039,-6.56364 0,-12.66541 -0.786285,-3.58833 -0.54629,-7.90516 -0.215649,-10.86201 l -0.0039,0.0224 z" opacity="1"/><path id="path4240" fill="#a6a6a6" fill-opacity="1" fill-rule="evenodd" stroke="#000c00" stroke-dasharray="none" stroke-linecap="butt" stroke-linejoin="miter" stroke-miterlimit="4" stroke-opacity="1" stroke-width=".131" d="m 46.53818,238.06441 -0.611923,0.61192 0.611923,0.61192 z"/><path id="path4242" fill="#a6a6a6" fill-opacity="1" fill-rule="evenodd" stroke="#000c00" stroke-dasharray="none" stroke-linecap="butt" stroke-linejoin="miter" stroke-miterlimit="4" stroke-opacity="1" stroke-width=".131" d="m 51.692975,238.0112 0.611924,0.61192 -0.611924,0.61192 z"/><path id="path4248" fill="#a6a6a6" fill-opacity="1" fill-rule="evenodd" stroke="#000c00" stroke-dasharray="none" stroke-linecap="butt" stroke-linejoin="miter" stroke-miterlimit="4" stroke-opacity="1" stroke-width=".131" d="m 47.855144,235.59011 c 0,0 0.172935,-0.71834 1.011001,-0.71834 0.838065,0 1.544221,-0.082 1.783113,0.75049 l 0.145774,6.83203 -3.059613,0.0399 z"/><path id="path4244" fill="#67be5a" fill-opacity="1" fill-rule="evenodd" stroke="#000c00" stroke-dasharray="none" stroke-linecap="butt" stroke-linejoin="miter" stroke-miterlimit="4" stroke-opacity="1" stroke-width=".131" d="m 47.748723,235.80295 -0.02661,6.70455 h 0.611923 v -6.9706 h -0.319263 z"/><path id="path4246" fill="#67be5a" fill-opacity="1" fill-rule="evenodd" stroke="#000c00" stroke-dasharray="none" stroke-linecap="butt" stroke-linejoin="miter" stroke-miterlimit="4" stroke-opacity="1" stroke-width=".131" d="m 50.737252,235.80295 0.02661,6.70455 h -0.611934 v -6.9706 h 0.319264 z"/><path id="path4257" fill="#c8c8c8" fill-opacity="1" fill-rule="evenodd" stroke="#000c00" stroke-dasharray="none" stroke-linecap="butt" stroke-linejoin="miter" stroke-miterlimit="4" stroke-opacity="1" stroke-width=".131" d="m 58.103726,232.24348 0.01445,1.83367 c 0.752865,6.88419 0.489396,13.99259 0.489396,13.99259 l 0.559145,17.77049 -0.01108,0.0188 0.0014,0.003 c 0,0 3.198149,-4.7784 4.007102,-12.54809 0.655964,-7.78964 -0.243533,-11.03667 -0.243533,-11.03667 0,0 -2.634134,-2.04827 -3.42496,-4.97309 -0.281798,-2.92815 -0.300999,-3.93189 -0.300999,-3.93189 z"/><path id="path4271" fill="#a6a6a6" fill-opacity="1" fill-rule="evenodd" stroke="#000c00" stroke-dasharray="none" stroke-linecap="butt" stroke-linejoin="miter" stroke-miterlimit="4" stroke-opacity="1" stroke-width=".131" d="m 48.426329,246.85082 h 1.723526 v -3.04631 c 0,0 0.03327,-0.33257 -0.292656,-0.31927 -0.325914,0.0133 -1.097472,0 -1.097472,0 0,0 -0.332567,-0.0399 -0.332567,0.33257 -0.0065,1.00608 0.0095,2.04487 -10e-4,3.03301 z"/><path id="path4273" fill="#a6a6a6" fill-opacity="1" fill-rule="evenodd" stroke="#000c00" stroke-dasharray="none" stroke-linecap="butt" stroke-linejoin="miter" stroke-miterlimit="4" stroke-opacity="1" stroke-width=".131" d="m 48.426329,247.14189 h 1.723526 v 3.04631 c 0,0 0.03327,0.33257 -0.292656,0.31926 -0.325914,-0.0133 -1.097472,0 -1.097472,0 0,0 -0.332567,0.0399 -0.332567,-0.33256 -0.0065,-1.00609 0.0095,-2.04488 -10e-4,-3.03301 z"/><path id="path4322" fill="none" fill-rule="evenodd" stroke="#00ef38" stroke-dasharray="none" stroke-linecap="butt" stroke-linejoin="miter" stroke-miterlimit="4" stroke-opacity="1" stroke-width=".131" d="m 38.240144,245.96207 c 0,0 1.021254,0.68615 1.531882,1.46805 0.510628,0.7819 0.813812,1.42018 0.813812,1.42018 0,0 0.191486,0.19149 -0.07979,0.4468 -0.271271,0.25531 -0.893598,0.71807 -0.893598,0.71807 l -0.510627,-0.12766 -0.239357,-0.38297 c 0,0 -0.218603,-0.40522 -0.694134,-0.58243 0,0 -0.0698,-2.01368 -0.08494,-2.7533 z"/><path id="path4324" fill="none" fill-rule="evenodd" stroke="#000" stroke-dasharray="none" stroke-linecap="butt" stroke-linejoin="miter" stroke-miterlimit="4" stroke-opacity="1" stroke-width=".131" d="m 37.913099,246.10574 -0.590438,0.72605 0.0637,1.5158 0.359185,0.43091 0.32707,-0.50264 0.07016,-0.11711 c -2.69e-4,-0.009 -5.41e-4,-0.0204 -8.79e-4,-0.0297 -0.0081,-0.2424 -0.01225,-0.36927 -0.02147,-0.66078 -0.005,-0.15535 -0.0094,-0.29357 -0.01396,-0.44453 -0.01012,-0.33597 -0.01879,-0.64726 -0.02304,-0.85503 z"/><path id="path4334" fill="none" fill-rule="evenodd" stroke="#000" stroke-dasharray="none" stroke-linecap="butt" stroke-linejoin="miter" stroke-miterlimit="4" stroke-opacity="1" stroke-width=".131" d="m 37.386365,248.34759 v 0 l -0.151518,0.0559 -0.02394,2.78452 0.295206,0.36701 h 0.398927 l 0.07979,-2.53718 -0.239282,-0.23935 z"/><path id="path4336" fill="none" fill-rule="evenodd" stroke="#000" stroke-dasharray="none" stroke-linecap="butt" stroke-linejoin="miter" stroke-miterlimit="4" stroke-opacity="1" stroke-width=".131" d="m 37.873131,252.40075 -0.414885,-0.008 -0.32712,0.43084 0.06383,2.66484 0.01596,0.1117 0.390949,0.3351 0.390949,-0.30318 0.06383,-0.18351 0.03191,-0.35904 -0.07979,-0.35105 -0.08777,-0.28723 -0.02393,-0.18351 v -0.24733 z"/><path id="path4338" fill="none" fill-rule="evenodd" stroke="#000" stroke-dasharray="none" stroke-linecap="butt" stroke-linejoin="miter" stroke-miterlimit="4" stroke-opacity="1" stroke-width=".131" d="m 37.99281,255.63207 -0.390949,0.30318 -0.313159,-0.27925 0.04189,1.31647 0.630305,0.79785 0.343078,0.008 -0.143614,-2.18612 -0.02234,-0.0254 -0.01834,-0.009 -0.02116,-0.006 -0.02327,0.006 z"/><path id="path4340" fill="none" fill-rule="evenodd" stroke="#000" stroke-dasharray="none" stroke-linecap="butt" stroke-linejoin="miter" stroke-miterlimit="4" stroke-opacity="1" stroke-width=".131" d="m 39.532745,253.89278 -0.454828,0.0559 -0.03997,0.0558 c 0,0 -0.199439,0.23138 -0.24731,0.50265 -0.04787,0.27127 -0.652571,1.05975 -0.652571,1.05975 l 0.02234,0.0253 0.109082,1.65996 0.34557,0.21502 c 0,0 0.478814,0.11956 0.518706,0.0637 0.03989,-0.0558 1.260636,-2.15405 1.372336,-2.4333 0.1117,-0.27925 -0.06388,-0.4468 -0.06388,-0.4468 z"/><path id="path4345" fill="none" fill-rule="evenodd" stroke="#000" stroke-dasharray="none" stroke-linecap="butt" stroke-linejoin="miter" stroke-miterlimit="4" stroke-opacity="1" stroke-width=".131" d="m 39.189491,250.95051 v 1.99715 l 0.992937,1.03807 0.519034,0.34979 c 0,0 0.552886,-1.81663 0.462619,-2.89983 -0.09027,-1.0832 -0.225668,-1.62481 -0.225668,-1.62481 0,0 -0.05642,-0.22002 -0.417484,-0.0113 -0.226035,0.13324 -0.394918,0.23695 -0.394918,0.23695 l -0.80112,0.64316 z"/><path id="path4347" fill="none" fill-rule="evenodd" stroke="#000" stroke-dasharray="none" stroke-linecap="butt" stroke-linejoin="miter" stroke-miterlimit="4" stroke-opacity="1" stroke-width=".131" d="m 38.278043,248.96979 c -0.295323,0.29593 -0.297052,0.92432 -0.297052,0.92432 l -0.0665,1.47391 c 0,0 -0.03956,0.71244 -0.03368,1.55018 l 0.004,0.27803 c 0.0049,0.24783 0.01337,0.49986 0.02967,0.74437 0.07898,1.18476 0.552914,1.04928 0.552914,1.04928 0,0 0.02643,0.0215 0.08849,-0.0175 0.116302,-0.1821 0.216427,-0.3615 0.234745,-0.4653 0.04787,-0.27127 0.24731,-0.50265 0.24731,-0.50265 l 0.03997,-0.0558 0.107336,-0.0131 c 0.09496,-0.23396 0.160122,-0.50132 0.205598,-0.77719 l -0.201409,-0.21065 v -1.99716 l 0.135436,-0.27087 0.05114,-0.041 c -0.04247,-0.19519 -0.104657,-0.45633 -0.185526,-0.72901 l -0.08866,-0.0222 -0.239282,-0.38292 c 0,0 -0.1854,-0.34179 -0.584504,-0.53476 z"/><path id="path4379" fill="#838383" fill-opacity="1" fill-rule="evenodd" stroke="#000" stroke-dasharray="none" stroke-linecap="butt" stroke-linejoin="miter" stroke-miterlimit="4" stroke-opacity="1" stroke-width=".131" d="m 38.278043,248.96979 c -0.295323,0.29593 -0.297052,0.92432 -0.297052,0.92432 l -0.0665,1.47391 c 0,0 -0.03956,0.71244 -0.03368,1.55018 l 0.004,0.27803 c 0.0049,0.24783 0.01337,0.49986 0.02967,0.74437 0.07898,1.18476 0.552914,1.04928 0.552914,1.04928 0,0 0.02643,0.0215 0.08849,-0.0175 0.116302,-0.1821 0.216427,-0.3615 0.234745,-0.4653 0.04787,-0.27127 0.24731,-0.50265 0.24731,-0.50265 l 0.03997,-0.0558 0.107336,-0.0131 c 0.09496,-0.23396 0.160122,-0.50132 0.205598,-0.77719 l -0.201409,-0.21065 v -1.99716 l 0.135436,-0.27087 0.05114,-0.041 c -0.04247,-0.19519 -0.104657,-0.45633 -0.185526,-0.72901 l -0.08866,-0.0222 -0.239282,-0.38292 c 0,0 -0.1854,-0.34179 -0.584504,-0.53476 z"/><g id="g4512" stroke="#000" stroke-dasharray="none" stroke-miterlimit="4" stroke-opacity="1" stroke-width=".388" transform="matrix(0.33773767,0,0,0.33773767,23.79897,220.31725)"><path id="path4365" fill="#a6a6a6" fill-opacity="1" fill-rule="evenodd" stroke="#000" stroke-dasharray="none" stroke-linecap="butt" stroke-linejoin="miter" stroke-miterlimit="4" stroke-opacity="1" stroke-width=".388" d="m 42.758555,75.931174 c 0,0 3.023809,2.031622 4.535715,4.346726 1.511906,2.315104 2.409598,4.204986 2.409598,4.204986 0,0 0.566965,0.566962 -0.236234,1.322917 -0.8032,0.755951 -2.645833,2.126115 -2.645833,2.126115 L 45.309895,87.553942 44.60119,86.420014 c 0,0 -0.647257,-1.199809 -2.055247,-1.724518 0,0 -0.206659,-5.962266 -0.25149,-8.152168 z"/><path id="path4367" fill="#a6a6a6" fill-opacity="1" fill-rule="evenodd" stroke="#000" stroke-dasharray="none" stroke-linecap="butt" stroke-linejoin="miter" stroke-miterlimit="4" stroke-opacity="1" stroke-width="1.466" d="m 157.94727,288.5918 -6.60743,8.125 0.71289,16.96289 4.01954,4.82226 3.66015,-5.625 0.78516,-1.31054 c -0.003,-0.10251 -0.006,-0.22867 -0.01,-0.33203 -0.0904,-2.71258 -0.13707,-4.13233 -0.24023,-7.39454 -0.0555,-1.7385 -0.10527,-3.28531 -0.15625,-4.97461 -0.11326,-3.75971 -0.21022,-7.24328 -0.25781,-9.56835 z" transform="scale(0.26458333)"/><path id="path4369" fill="#a6a6a6" fill-opacity="1" fill-rule="evenodd" stroke="#000" stroke-dasharray="none" stroke-linecap="butt" stroke-linejoin="miter" stroke-miterlimit="4" stroke-opacity="1" stroke-width=".388" d="m 40.230618,82.994417 v 0 l -0.448625,0.165552 -0.07087,8.244605 0.87407,1.086681 h 1.181174 L 42.002603,84.97898 41.29412,84.270307 Z"/><path id="path4371" fill="#a6a6a6" fill-opacity="1" fill-rule="evenodd" stroke="#000" stroke-dasharray="none" stroke-linecap="butt" stroke-linejoin="miter" stroke-miterlimit="4" stroke-opacity="1" stroke-width=".388" d="m 41.671874,94.995348 -1.228423,-0.02363 -0.968563,1.27567 0.188987,7.890252 0.04725,0.33073 1.157552,0.99219 1.157552,-0.89769 0.188987,-0.54334 0.09449,-1.06306 -0.236233,-1.03944 -0.259861,-0.85044 -0.07087,-0.54334 v -0.732335 z"/><path id="path4373" fill="#a6a6a6" fill-opacity="1" fill-rule="evenodd" stroke="#000" stroke-dasharray="none" stroke-linecap="butt" stroke-linejoin="miter" stroke-miterlimit="4" stroke-opacity="1" stroke-width=".388" d="m 42.026228,104.56287 -1.157552,0.89769 -0.927224,-0.82682 0.124023,3.89788 1.866257,2.36235 1.015812,0.0236 -0.425222,-6.47284 -0.06614,-0.0751 -0.05429,-0.0272 -0.06264,-0.0188 -0.06891,0.0167 z"/><path id="path4375" fill="#a6a6a6" fill-opacity="1" fill-rule="evenodd" stroke="#000" stroke-dasharray="none" stroke-linecap="butt" stroke-linejoin="miter" stroke-miterlimit="4" stroke-opacity="1" stroke-width="1.466" d="m 176.07227,375.73438 -5.08985,0.625 -0.44726,0.625 c 0,0 -2.23187,2.58924 -2.76758,5.625 -0.53572,3.03567 -7.30274,11.85937 -7.30274,11.85937 l 0.25,0.2832 1.22071,18.57617 3.86718,2.40626 c 0,-10e-6 5.35826,1.33791 5.80469,0.71289 0.44643,-0.62499 14.10742,-24.10545 15.35742,-27.23047 1.25001,-3.12499 -0.71484,-5 -0.71484,-5 z" transform="scale(0.26458333)"/><path id="path4377" fill="#a6a6a6" fill-opacity="1" fill-rule="evenodd" stroke="#000" stroke-dasharray="none" stroke-linecap="butt" stroke-linejoin="miter" stroke-miterlimit="4" stroke-opacity="1" stroke-width=".388" d="m 45.569454,90.701332 v 5.913337 l 2.939965,3.073601 1.536798,1.03567 c 0,0 1.637028,-5.3788 1.369759,-8.586034 -0.267272,-3.207234 -0.668176,-4.810852 -0.668176,-4.810852 0,0 -0.167043,-0.65147 -1.23612,-0.03341 -0.669262,0.394488 -1.169305,0.701584 -1.169305,0.701584 l -2.372016,1.904296 z"/></g></g><g id="g5009"><g id="g5502" stroke="#000" stroke-dasharray="none" stroke-miterlimit="4" stroke-opacity="1" stroke-width=".388" transform="matrix(0.34558854,0,0,0.34558854,-2.2832734,199.29356)"><path id="path4561" fill="#e8e8e8" fill-opacity="1" fill-rule="evenodd" stroke="#000" stroke-dasharray="none" stroke-linecap="butt" stroke-linejoin="miter" stroke-miterlimit="4" stroke-opacity="1" stroke-width=".388" d="m 24.911682,252.94543 c 0,0 66.008546,-33.3535 92.641208,-32.82262 18.3343,0.36546 47.47792,1.41183 66.72589,36.13129 -4.79486,14.99966 -13.12394,20.90454 -13.12394,20.90454 0,0 -54.79788,2.38966 -117.390386,2.8395 -0.55473,0.0845 -8.915775,-1.58886 -13.333609,-2.35082 -0.02841,-0.005 -0.05765,-0.004 -0.08642,-0.006 -7.790829,-17.01101 -15.432782,-24.6957 -15.432782,-24.6957 z" opacity="1"/><path id="path4742" fill="#c8c8c8" fill-opacity="1" fill-rule="evenodd" stroke="#000" stroke-dasharray="none" stroke-linecap="butt" stroke-linejoin="miter" stroke-miterlimit="4" stroke-opacity="1" stroke-width=".388" d="m 108.08849,221.41346 c -0.31839,0.004 -0.63882,0.008 -0.97927,0.0222 -13.843377,0.56697 -37.041662,10.82001 -37.041662,10.82001 l 0.636135,0.43253 c 13.071054,-4.96699 26.643229,-9.41161 37.384797,-11.27477 z" opacity="1"/><path id="path4571" fill="#c8c8c8" fill-opacity="1" fill-rule="evenodd" stroke="#000" stroke-dasharray="none" stroke-linecap="butt" stroke-linejoin="miter" stroke-miterlimit="4" stroke-opacity="1" stroke-width=".388" d="m 85.6801,227.3348 c -25.435008,7.36246 -47.006939,19.09612 -60.192963,24.71709 l 4.798833,-0.19245 1.541912,-1.37708 c 0,0 55.923574,-22.63312 79.210438,-25.01109 12.89382,0.69154 26.09518,-0.67138 55.05825,20.80993 4.73431,3.51134 11.1484,7.28191 17.65802,9.86934 0.1735,0.069 0.28371,0.20619 0.43171,0.31447 0.038,-0.18711 0.0805,-0.36912 0.11659,-0.55829 -19.24798,-34.71946 -46.7235,-35.27723 -65.05781,-35.6427 -0.41613,-0.008 -4.28706,-6.5e-4 -8.2406,0.45558 -9.16529,1.39166 -25.32438,6.6152 -25.32438,6.6152 z" opacity="1"/><path id="path4717" fill="#a6a6a6" fill-opacity="1" fill-rule="evenodd" stroke="#000" stroke-dasharray="none" stroke-linecap="butt" stroke-linejoin="miter" stroke-miterlimit="4" stroke-opacity="1" stroke-width="1.466" d="m 247.08008,875.55078 c -7.35789,0.13688 -16.30774,1.29629 -26.10938,4.6582 -25.30029,8.67789 -35.12859,30.18344 -35.73828,31.56446 24.94953,-11.26357 52.41732,-23.00772 81.9043,-33.85156 -0.16474,-0.0544 -7.92399,-2.5968 -20.05664,-2.3711 z" opacity="1" transform="scale(0.26458333)"/><path id="path4722" fill="#67be5a" fill-opacity="1" fill-rule="evenodd" stroke="#000" stroke-dasharray="none" stroke-linecap="butt" stroke-linejoin="miter" stroke-miterlimit="4" stroke-opacity="1" stroke-width="1.466" d="m 251.44531,878.84375 c -0.72333,-0.006 -1.46436,-0.004 -2.22265,0.01 -7.35789,0.13681 -16.30774,1.29631 -26.10938,4.6582 -17.80425,6.10679 -27.92253,18.54296 -32.58203,25.87109 3.47861,-1.55675 7.02049,-3.12159 10.5918,-4.68945 5.65533,-5.89364 13.69675,-12.05917 24.66797,-15.82227 9.13243,-3.13235 17.50764,-4.3408 24.5625,-4.60351 3.94318,-1.53096 7.91211,-3.05348 11.93359,-4.55664 -2.88195,-0.44565 -6.50719,-0.82982 -10.8418,-0.86719 z" opacity="1" transform="scale(0.26458333)"/><path id="path4732" fill="#a6a6a6" fill-opacity="1" fill-rule="evenodd" stroke="#000" stroke-dasharray="none" stroke-linecap="butt" stroke-linejoin="miter" stroke-miterlimit="4" stroke-opacity="1" stroke-width="1.466" d="m 248.77539,884.87891 c -6.93502,0.30635 -15.10871,1.53372 -23.99609,4.58203 -10.8149,3.70947 -18.79422,9.76245 -24.44336,15.58594 15.34822,-6.74732 31.50053,-13.56123 48.43945,-20.16797 z" opacity="1" transform="scale(0.26458333)"/><path id="path4750" fill="#a6a6a6" fill-opacity="1" fill-rule="evenodd" stroke="#000" stroke-dasharray="none" stroke-linecap="butt" stroke-linejoin="miter" stroke-miterlimit="4" stroke-opacity="1" stroke-width="1.466" d="m 340.36133,843.29883 c -0.27466,-0.007 -0.4961,0.0684 -0.4961,0.0684 0,0 -36.38337,13.08174 -40.53515,14.28711 -4.15178,1.20536 -3.83985,3.48242 -3.83985,3.48242 v 3.23242 c 13.11186,-4.99356 29.24204,-10.73617 45.97071,-15.76367 -0.013,-1.10728 -0.0332,-2.47273 -0.0332,-3.85352 0,-1.19978 -0.60864,-1.44136 -1.0664,-1.45312 z" opacity="1" transform="scale(0.26458333)"/><path id="path4755" fill="#a6a6a6" fill-opacity="1" fill-rule="evenodd" stroke="#000" stroke-dasharray="none" stroke-linecap="butt" stroke-linejoin="miter" stroke-miterlimit="4" stroke-opacity="1" stroke-width="1.466" d="m 387.78711,832.11523 c -0.29036,-0.0157 -0.46484,0.0469 -0.46484,0.0469 l -42.76954,10.08984 0.2461,5.36133 c 15.54788,-4.55831 31.45061,-8.40024 45.82226,-10.36914 0.14,-0.71199 0.31527,-2.37391 -0.71093,-3.74219 -0.83707,-1.11607 -1.63913,-1.36056 -2.12305,-1.38672 z" opacity="1" transform="scale(0.26458333)"/><path id="path5472" fill="#c8c8c8" fill-opacity="1" fill-rule="evenodd" stroke="#000" stroke-dasharray="none" stroke-linecap="butt" stroke-linejoin="miter" stroke-miterlimit="4" stroke-opacity="1" stroke-width=".388" d="m 28.657896,255.45819 12.291916,18.28613 11.115837,1.5175 c 0,0 -10.357077,-19.42425 -12.55748,-20.48651 -2.200406,-1.06227 -3.035042,-1.51752 -3.035042,-1.51752 l -1.251954,1.66927 z" opacity="1"/><path id="path4762" fill="#838383" fill-opacity="1" fill-rule="evenodd" stroke="#000" stroke-dasharray="none" stroke-linecap="butt" stroke-linejoin="miter" stroke-miterlimit="4" stroke-opacity="1" stroke-width=".388" d="m 30.055373,256.50866 10.824416,16.103 9.788747,1.33633 c 0,0 -9.120573,-17.10524 -11.058276,-18.04068 -1.937705,-0.93545 -2.672696,-1.33635 -2.672696,-1.33635 l -1.102487,1.46998 z" opacity="1"/><circle id="path4764" cx="109.647" cy="250.094" r="10.023" fill="#838383" fill-opacity="1" stroke="#000" stroke-dasharray="none" stroke-linecap="round" stroke-linejoin="round" stroke-miterlimit="4" stroke-opacity="1" stroke-width=".388" opacity="1"/><path id="circle4766" fill="#67be5a" fill-opacity="1" fill-rule="nonzero" stroke="#000" stroke-dasharray="none" stroke-dashoffset="0" stroke-linecap="round" stroke-linejoin="round" stroke-miterlimit="4" stroke-opacity="1" stroke-width=".388" d="m 109.64648,238.38281 c -6.46384,0 -11.70898,5.24709 -11.70898,11.71094 0,6.46385 5.24514,11.71094 11.70898,11.71094 6.46385,0 11.71094,-5.24709 11.71094,-11.71094 0,-6.46385 -5.24709,-11.71094 -11.71094,-11.71094 z m 0,0.64844 c 6.11386,0 11.06446,4.94864 11.06446,11.0625 0,6.11386 -4.9506,11.06445 -11.06446,11.06445 -6.11386,0 -11.062496,-4.95059 -11.062496,-11.06445 0,-6.11386 4.948636,-11.0625 11.062496,-11.0625 z" baseline-shift="baseline" clip-rule="nonzero" color="#000" color-interpolation="sRGB" color-interpolation-filters="linearRGB" color-rendering="auto" direction="ltr" display="inline" dominant-baseline="auto" enable-background="accumulate" font-family="sans-serif" font-size="medium" font-stretch="normal" font-style="normal" font-variant="normal" font-weight="normal" image-rendering="auto" letter-spacing="normal" opacity="1" overflow="visible" shape-rendering="auto" text-anchor="start" text-decoration="none" text-rendering="auto" vector-effect="none" visibility="visible" word-spacing="normal" writing-mode="lr-tb" style="line-height:normal;font-variant-ligatures:normal;font-variant-position:normal;font-variant-caps:normal;font-variant-numeric:normal;font-variant-alternates:normal;font-feature-settings:normal;text-indent:0;text-align:start;text-decoration-line:none;text-decoration-style:solid;text-decoration-color:#000;text-transform:none;text-orientation:mixed;white-space:normal;shape-padding:0;isolation:auto;mix-blend-mode:normal;solid-color:#000;solid-opacity:1"/><path id="path4770" fill="#a6a6a6" fill-opacity="1" fill-rule="evenodd" stroke="#000" stroke-dasharray="none" stroke-linecap="butt" stroke-linejoin="miter" stroke-miterlimit="4" stroke-opacity="1" stroke-width=".388" d="m 88.29917,242.67747 c 2.472956,-4.87193 4.332071,-7.74491 9.321024,-10.52374 1.002261,-0.56795 1.603616,0.13363 1.603616,0.13363 l 3.30746,5.81312 c 0,0 0.60136,0.90203 -0.30068,1.53679 -0.90203,0.63477 -3.207231,2.23839 -4.00904,4.00905 -0.801809,1.77066 -0.935442,2.07134 -0.935442,2.07134 0,0 -0.200454,0.63476 -1.80407,0.26727 -1.603618,-0.3675 -6.080381,-1.43658 -6.080381,-1.43658 0,0 -1.536801,-0.43431 -1.102487,-1.87088 z" opacity="1"/><path id="path4774" fill="#a6a6a6" fill-opacity="1" fill-rule="evenodd" stroke="#000" stroke-dasharray="none" stroke-linecap="butt" stroke-linejoin="miter" stroke-miterlimit="4" stroke-opacity="1" stroke-width=".388" d="m 101.89624,230.38203 c 5.3603,-1.05755 9.6428,-1.97276 14.62338,-0.60935 1.06516,0.43877 0.95051,1.41163 0.95051,1.41163 l -2.59299,6.40986 c 0,0 -0.50632,0.86261 -1.56228,0.54393 -1.05595,-0.31866 -3.63966,-0.77699 -5.52803,-0.3163 -1.88835,0.4607 -2.20747,0.54092 -2.20747,0.54092 0,0 -0.89058,0.40066 -1.59016,-1.08837 -0.6996,-1.48903 -2.8859,-5.30502 -2.8859,-5.30502 0,0 -0.60579,-1.04333 0.79294,-1.5873 z" opacity="1"/><path id="path4776" fill="#a6a6a6" fill-opacity="1" fill-rule="evenodd" stroke="#000" stroke-dasharray="none" stroke-linecap="butt" stroke-linejoin="miter" stroke-miterlimit="4" stroke-opacity="1" stroke-width=".388" d="m 90.57337,262.09628 c -2.339474,-4.93742 -4.158846,-9.11093 -3.303176,-14.75711 0.164235,-1.14023 1.087117,-1.18644 1.087117,-1.18644 l 7.259337,1.46173 c 0,0 0.939664,0.0529 0.889606,1.1547 -0.05005,1.10185 -0.0509,3.92998 0.858703,5.64776 0.909606,1.71777 1.065614,2.00748 1.065614,2.00748 0,0 0.379312,0.547 -0.892747,1.59031 -1.272067,1.04331 -4.810139,4.35468 -4.810139,4.35468 0,0 -1.284015,0.94957 -2.154315,-0.27311 z" opacity="1"/><path id="path4778" fill="#a6a6a6" fill-opacity="1" fill-rule="evenodd" stroke="#000" stroke-dasharray="none" stroke-linecap="butt" stroke-linejoin="miter" stroke-miterlimit="4" stroke-opacity="1" stroke-width=".388" d="m 107.15583,272.64866 c -5.29278,-1.35563 -9.665619,-2.62316 -13.461803,-6.88936 -0.772101,-0.85496 -0.217905,-1.59437 -0.217905,-1.59437 l 5.763231,-4.64971 c 0,0 0.64115,-0.68898 1.456657,0.0536 0.81555,0.7426 2.99037,2.55049 4.89293,2.94853 1.90254,0.39804 2.22507,0.46317 2.22507,0.46317 0,0 0.66314,0.0578 0.65301,1.70285 -0.01,1.64516 0.27578,6.48262 0.27578,6.48262 0,0 -0.0902,1.59445 -1.58673,1.48256 z" opacity="1"/><path id="path4780" fill="#a6a6a6" fill-opacity="1" fill-rule="evenodd" stroke="#000" stroke-dasharray="none" stroke-linecap="butt" stroke-linejoin="miter" stroke-miterlimit="4" stroke-opacity="1" stroke-width=".388" d="m 125.6227,266.18636 c -4.41591,3.2173 -7.64348,6.44961 -13.35027,6.65946 -1.15088,0.0508 -1.368,-0.84739 -1.368,-0.84739 l -0.44904,-8.33998 c 0,0 -0.12287,-0.93309 0.96901,-1.08892 1.09191,-0.15585 3.87082,-0.68124 5.38935,-1.89459 1.51853,-1.21332 1.77415,-1.42051 1.77415,-1.42051 0,0 0.46688,-0.47446 1.72874,0.58101 1.26202,1.05544 5.17362,4.18314 5.17362,4.18314 0,0 1.17185,1.08498 0.13251,2.16752 z" opacity="1"/><path id="path4782" fill="#a6a6a6" fill-opacity="1" fill-rule="evenodd" stroke="#000" stroke-dasharray="none" stroke-linecap="butt" stroke-linejoin="miter" stroke-miterlimit="4" stroke-opacity="1" stroke-width=".388" d="m 131.70402,247.60073 c -0.16874,5.46103 0.0694,10.05968 -3.26626,14.69489 -0.66599,0.93997 -1.50847,0.56036 -1.50847,0.56036 l -5.85903,-5.1632 c 0,0 -0.81221,-0.47547 -0.26536,-1.43329 0.54686,-0.95787 1.83694,-3.47462 1.81049,-5.41819 -0.0265,-1.94355 -0.0332,-2.27252 -0.0332,-2.27252 0,0 -0.0882,-0.65978 1.51944,-1.00865 1.60775,-0.34902 5.80933,-1.18482 5.80933,-1.18482 0,0 1.57575,-0.25969 1.79292,1.22522 z" opacity="1"/><path id="path4784" fill="#a6a6a6" fill-opacity="1" fill-rule="evenodd" stroke="#000" stroke-dasharray="none" stroke-linecap="butt" stroke-linejoin="miter" stroke-miterlimit="4" stroke-opacity="1" stroke-width=".388" d="m 121.07208,230.98583 c 4.26456,3.41537 7.72714,6.37153 9.4291,11.82267 0.35141,1.09709 -0.45816,1.54258 -0.45816,1.54258 l -7.16682,1.86312 c 0,0 -0.86803,0.36371 -1.30527,-0.64885 -0.43732,-1.01258 -1.67437,-3.55581 -3.24409,-4.70217 -1.56971,-1.14636 -1.83679,-1.33856 -1.83679,-1.33856 0,0 -0.58046,-0.3258 0.10662,-1.82064 0.68709,-1.49483 2.41888,-6.02077 2.41888,-6.02077 0,0 0.73885,-1.41578 2.05653,-0.69738 z" opacity="1"/></g><text id="text4322-3-7-6" x="28.806" y="288.318" fill="#000" fill-opacity="1" stroke="#fff" stroke-dasharray="none" stroke-linecap="butt" stroke-linejoin="round" stroke-miterlimit="4" stroke-opacity="1" stroke-width=".111" font-family="Dejavu Sans Mono" font-size="3.004" font-stretch="normal" font-style="normal" font-variant="normal" font-weight="bold" letter-spacing="0" word-spacing="0" xml:space="preserve" style="line-height:125%;-inkscape-font-specification:'Dejavu Sans Mono Bold'"><tspan id="tspan4324-6-5-2" x="28.806" y="288.318" stroke-width=".111">1</tspan></text><text id="text4945" x="29.742" y="282.99" fill="#000" fill-opacity="1" stroke="#fff" stroke-dasharray="none" stroke-linecap="butt" stroke-linejoin="round" stroke-miterlimit="4" stroke-opacity="1" stroke-width=".111" font-family="Dejavu Sans Mono" font-size="3.004" font-stretch="normal" font-style="normal" font-variant="normal" font-weight="bold" letter-spacing="0" word-spacing="0" xml:space="preserve" style="line-height:125%;-inkscape-font-specification:'Dejavu Sans Mono Bold'"><tspan id="tspan4943" x="29.742" y="282.99" stroke-width=".111">2</tspan></text><text id="text4949" x="34.493" y="281.169" fill="#000" fill-opacity="1" stroke="#fff" stroke-dasharray="none" stroke-linecap="butt" stroke-linejoin="round" stroke-miterlimit="4" stroke-opacity="1" stroke-width=".111" font-family="Dejavu Sans Mono" font-size="3.004" font-stretch="normal" font-style="normal" font-variant="normal" font-weight="bold" letter-spacing="0" word-spacing="0" xml:space="preserve" style="line-height:125%;-inkscape-font-specification:'Dejavu Sans Mono Bold'"><tspan id="tspan4947" x="34.493" y="281.169" stroke-width=".111">3</tspan></text><text id="text4953" x="39.4" y="282.823" fill="#000" fill-opacity="1" stroke="#fff" stroke-dasharray="none" stroke-linecap="butt" stroke-linejoin="round" stroke-miterlimit="4" stroke-opacity="1" stroke-width=".111" font-family="Dejavu Sans Mono" font-size="3.004" font-stretch="normal" font-style="normal" font-variant="normal" font-weight="bold" letter-spacing="0" word-spacing="0" xml:space="preserve" style="line-height:125%;-inkscape-font-specification:'Dejavu Sans Mono Bold'"><tspan id="tspan4951" x="39.4" y="282.823" stroke-width=".111">7</tspan></text><text id="text4957" x="40.347" y="288.391" fill="#000" fill-opacity="1" stroke="#fff" stroke-dasharray="none" stroke-linecap="butt" stroke-linejoin="round" stroke-miterlimit="4" stroke-opacity="1" stroke-width=".111" font-family="Dejavu Sans Mono" font-size="3.004" font-stretch="normal" font-style="normal" font-variant="normal" font-weight="bold" letter-spacing="0" word-spacing="0" xml:space="preserve" style="line-height:125%;-inkscape-font-specification:'Dejavu Sans Mono Bold'"><tspan id="tspan4955" x="40.347" y="288.391" stroke-width=".111">6</tspan></text><text id="text4961" x="37.612" y="292.314" fill="#000" fill-opacity="1" stroke="#fff" stroke-dasharray="none" stroke-linecap="butt" stroke-linejoin="round" stroke-miterlimit="4" stroke-opacity="1" stroke-width=".111" font-family="Dejavu Sans Mono" font-size="3.004" font-stretch="normal" font-style="normal" font-variant="normal" font-weight="bold" letter-spacing="0" word-spacing="0" xml:space="preserve" style="line-height:125%;-inkscape-font-specification:'Dejavu Sans Mono Bold'"><tspan id="tspan4959" x="37.612" y="292.314" stroke-width=".111">5</tspan></text><text id="text4965" x="31.656" y="292.296" fill="#000" fill-opacity="1" stroke="#fff" stroke-dasharray="none" stroke-linecap="butt" stroke-linejoin="round" stroke-miterlimit="4" stroke-opacity="1" stroke-width=".111" font-family="Dejavu Sans Mono" font-size="3.004" font-stretch="normal" font-style="normal" font-variant="normal" font-weight="bold" letter-spacing="0" word-spacing="0" xml:space="preserve" style="line-height:125%;-inkscape-font-specification:'Dejavu Sans Mono Bold'"><tspan id="tspan4963" x="31.656" y="292.296" stroke-width=".111">4</tspan></text></g></g></svg>