<svg xmlns="http://www.w3.org/2000/svg" xmlns:svg="http://www.w3.org/2000/svg" id="svg4424" width="45" height="45" version="1.1" viewBox="0 0 45 45"><metadata id="metadata4429"/><g id="layer1" transform="translate(0,-1007.3622)"><path id="path4368" fill="#b7b7b7" fill-opacity="1" stroke="none" stroke-dasharray="none" stroke-linecap="round" stroke-linejoin="round" stroke-miterlimit="4" stroke-opacity="1" stroke-width="3" d="m 22.5,1007.3622 a 22.499916,22.499916 0 0 0 -22.5,22.5 22.499916,22.499916 0 0 0 22.5,22.5 22.499916,22.499916 0 0 0 22.5,-22.5 22.499916,22.499916 0 0 0 -22.5,-22.5 z m 0,1.3289 A 21.170375,21.170375 0 0 1 43.67116,1029.8622 21.170375,21.170375 0 0 1 22.5,1051.0318 21.170375,21.170375 0 0 1 1.33042,1029.8622 21.170375,21.170375 0 0 1 22.5,1008.6911 Z" opacity="1"/><path id="path4370" fill="#b7b7b7" fill-opacity="1" stroke="none" stroke-dasharray="none" stroke-linecap="round" stroke-linejoin="round" stroke-miterlimit="4" stroke-opacity="1" stroke-width="3" d="m 22.5,1007.3622 a 22.499916,22.499916 0 0 0 -22.5,22.5 22.499916,22.499916 0 0 0 22.5,22.5 22.499916,22.499916 0 0 0 22.5,-22.5 22.499916,22.499916 0 0 0 -22.5,-22.5 z m 0,1.3289 A 21.170375,21.170375 0 0 1 43.67116,1029.8622 21.170375,21.170375 0 0 1 22.5,1051.0318 21.170375,21.170375 0 0 1 1.33042,1029.8622 21.170375,21.170375 0 0 1 22.5,1008.6911 Z" opacity="1"/><path id="path4385" fill="#b7b7b7" fill-opacity="1" fill-rule="evenodd" stroke="none" stroke-dasharray="none" stroke-dashoffset="0" stroke-linecap="butt" stroke-linejoin="miter" stroke-miterlimit="4" stroke-opacity="1" stroke-width="1.5" d="m 20.72881,1030.5737 -8.26758,8.2675 1.06055,1.0606 8.26758,-8.2676 -1.06055,-1.0605 z" baseline-shift="baseline" clip-rule="nonzero" color="#000" color-interpolation="sRGB" color-interpolation-filters="linearRGB" color-rendering="auto" direction="ltr" display="inline" enable-background="accumulate" font-family="sans-serif" font-size="medium" font-stretch="normal" font-style="normal" font-variant="normal" font-weight="normal" image-rendering="auto" letter-spacing="normal" opacity="1" overflow="visible" shape-rendering="auto" text-anchor="start" text-decoration="none" text-rendering="auto" visibility="visible" word-spacing="normal" writing-mode="lr-tb" style="line-height:normal;text-indent:0;text-align:start;text-decoration-line:none;text-decoration-style:solid;text-decoration-color:#000;text-transform:none;block-progression:tb;white-space:normal;isolation:auto;mix-blend-mode:normal;solid-color:#000;solid-opacity:1"/><path id="path4387" fill="#b7b7b7" fill-opacity="1" fill-rule="evenodd" stroke="none" stroke-dasharray="none" stroke-dashoffset="0" stroke-linecap="butt" stroke-linejoin="miter" stroke-miterlimit="4" stroke-opacity="1" stroke-width="1.5" d="m 13.521484,1019.8223 -1.060546,1.0605 19.017578,19.0176 1.060546,-1.0606 -19.017578,-19.0175 z" baseline-shift="baseline" clip-rule="nonzero" color="#000" color-interpolation="sRGB" color-interpolation-filters="linearRGB" color-rendering="auto" direction="ltr" display="inline" enable-background="accumulate" font-family="sans-serif" font-size="medium" font-stretch="normal" font-style="normal" font-variant="normal" font-weight="normal" image-rendering="auto" letter-spacing="normal" opacity="1" overflow="visible" shape-rendering="auto" text-anchor="start" text-decoration="none" text-rendering="auto" visibility="visible" word-spacing="normal" writing-mode="lr-tb" style="line-height:normal;text-indent:0;text-align:start;text-decoration-line:none;text-decoration-style:solid;text-decoration-color:#000;text-transform:none;block-progression:tb;white-space:normal;isolation:auto;mix-blend-mode:normal;solid-color:#000;solid-opacity:1"/><path id="path4395" fill="#b7b7b7" fill-opacity="1" fill-rule="evenodd" stroke="none" stroke-dasharray="none" stroke-dashoffset="0" stroke-linecap="butt" stroke-linejoin="miter" stroke-miterlimit="4" stroke-opacity="1" stroke-width="1.5" d="m 31.47881,1019.8237 -8.26758,8.2675 1.06055,1.0606 8.26758,-8.2676 -1.06055,-1.0605 z" baseline-shift="baseline" clip-rule="nonzero" color="#000" color-interpolation="sRGB" color-interpolation-filters="linearRGB" color-rendering="auto" direction="ltr" display="inline" enable-background="accumulate" font-family="sans-serif" font-size="medium" font-stretch="normal" font-style="normal" font-variant="normal" font-weight="normal" image-rendering="auto" letter-spacing="normal" opacity="1" overflow="visible" shape-rendering="auto" text-anchor="start" text-decoration="none" text-rendering="auto" visibility="visible" word-spacing="normal" writing-mode="lr-tb" style="line-height:normal;text-indent:0;text-align:start;text-decoration-line:none;text-decoration-style:solid;text-decoration-color:#000;text-transform:none;block-progression:tb;white-space:normal;isolation:auto;mix-blend-mode:normal;solid-color:#000;solid-opacity:1"/></g></svg>