<svg xmlns="http://www.w3.org/2000/svg" xmlns:svg="http://www.w3.org/2000/svg" id="svg4424" width="45" height="45" version="1.1" viewBox="0 0 45 45"><metadata id="metadata4429"/><g id="layer1" transform="translate(0,-1007.3622)"><path id="path4251" fill="#b7b7b7" fill-opacity="1" stroke="none" stroke-dasharray="none" stroke-linecap="round" stroke-linejoin="round" stroke-miterlimit="4" stroke-opacity="1" stroke-width="3" d="m 22.5,1007.3622 a 22.499916,22.499916 0 0 0 -22.5,22.5 22.499916,22.499916 0 0 0 22.5,22.5 22.499916,22.499916 0 0 0 22.499999,-22.5 22.499916,22.499916 0 0 0 -22.499999,-22.5 z m 0,1.3289 A 21.170375,21.170375 0 0 1 43.671162,1029.8622 21.170375,21.170375 0 0 1 22.5,1051.0318 21.170375,21.170375 0 0 1 1.33042,1029.8622 21.170375,21.170375 0 0 1 22.5,1008.6911 Z" opacity="1"/><circle id="path4261" cx="22.5" cy="1029.862" r="5.975" fill="none" fill-opacity="1" stroke="#b7b7b7" stroke-dasharray="none" stroke-linecap="square" stroke-linejoin="miter" stroke-miterlimit="4" stroke-opacity="1" stroke-width="1.5" opacity="1"/><circle id="circle4263" cx="22.5" cy="1029.862" r="11.656" fill="none" fill-opacity="1" stroke="#b7b7b7" stroke-dasharray="none" stroke-linecap="square" stroke-linejoin="miter" stroke-miterlimit="4" stroke-opacity="1" stroke-width=".8" opacity="1"/><circle id="circle4265" cx="22.5" cy="1029.862" r="14.838" fill="none" fill-opacity="1" stroke="#b7b7b7" stroke-dasharray="none" stroke-linecap="square" stroke-linejoin="miter" stroke-miterlimit="4" stroke-opacity="1" stroke-width=".8" opacity="1"/></g></svg>