<svg xmlns="http://www.w3.org/2000/svg" xmlns:svg="http://www.w3.org/2000/svg" id="svg4242" width="45" height="45" version="1.1" viewBox="0 0 45 45"><metadata id="metadata4247"/><g id="layer1" transform="translate(0,-1007.3622)"><path id="path4174" fill="#b7b7b7" fill-opacity="1" stroke="none" stroke-dasharray="none" stroke-linecap="round" stroke-linejoin="round" stroke-miterlimit="4" stroke-opacity="1" stroke-width="3" d="m 22.5,1007.3622 a 22.499916,22.499916 0 0 0 -22.5,22.5 22.499916,22.499916 0 0 0 22.5,22.5 22.499916,22.499916 0 0 0 22.5,-22.5 22.499916,22.499916 0 0 0 -22.5,-22.5 z m 0,1.3289 A 21.170375,21.170375 0 0 1 43.67116,1029.8622 21.170375,21.170375 0 0 1 22.5,1051.0318 21.170375,21.170375 0 0 1 1.33042,1029.8622 21.170375,21.170375 0 0 1 22.5,1008.6911 Z" opacity="1"/><circle id="circle4178" cx="33.76" cy="1025.175" r="5.975" fill="none" fill-opacity="1" stroke="#b7b7b7" stroke-dasharray="none" stroke-linecap="square" stroke-linejoin="miter" stroke-miterlimit="4" stroke-opacity="1" stroke-width="1.5" opacity="1"/><path id="circle4182" fill="none" fill-opacity="1" stroke="#b7b7b7" stroke-dasharray="none" stroke-linecap="square" stroke-linejoin="miter" stroke-miterlimit="4" stroke-opacity="1" stroke-width=".8" d="m 32.08159,1010.4506 a 14.838334,14.838334 0 0 0 -13.16016,14.7246 14.838334,14.838334 0 0 0 14.83789,14.8379 14.838334,14.838334 0 0 0 8.63477,-2.793 21.558371,21.607929 0 0 0 1.39453,-7.5722 21.558371,21.607929 0 0 0 -11.70703,-19.1973 z" opacity="1"/><circle id="circle4196" cx="13.652" cy="1038.856" r="5.975" fill="none" fill-opacity="1" stroke="#b7b7b7" stroke-dasharray="none" stroke-linecap="square" stroke-linejoin="miter" stroke-miterlimit="4" stroke-opacity="1" stroke-width="1.5" opacity="1"/><path id="circle4198" fill="none" fill-opacity="1" stroke="#b7b7b7" stroke-dasharray="none" stroke-linecap="square" stroke-linejoin="miter" stroke-miterlimit="4" stroke-opacity="1" stroke-width=".8" d="m 13.6519,1027.1986 a 11.65644,11.65644 0 0 0 -11.54883,10.1758 21.558371,21.607929 0 0 0 13.75977,12.918 11.65644,11.65644 0 0 0 9.44531,-11.4356 11.65644,11.65644 0 0 0 -11.65625,-11.6582 z" opacity="1"/></g></svg>