<svg xmlns="http://www.w3.org/2000/svg" xmlns:svg="http://www.w3.org/2000/svg" id="svg4424" width="45" height="45" version="1.1" viewBox="0 0 45 45"><metadata id="metadata4429"/><g id="layer1" transform="translate(0,-1007.3622)"><path id="path4178" fill="#b7b7b7" fill-opacity="1" stroke="none" stroke-dasharray="none" stroke-linecap="round" stroke-linejoin="round" stroke-miterlimit="4" stroke-opacity="1" stroke-width="3" d="M 22.499999,1007.3622 A 22.499916,22.499916 0 0 0 0,1029.8622 a 22.499916,22.499916 0 0 0 22.499999,22.5 22.499916,22.499916 0 0 0 22.5,-22.5 22.499916,22.499916 0 0 0 -22.5,-22.5 z m 0,1.3289 a 21.170375,21.170375 0 0 1 21.171163,21.1711 21.170375,21.170375 0 0 1 -21.171163,21.1696 21.170375,21.170375 0 0 1 -21.169579,-21.1696 21.170375,21.170375 0 0 1 21.169579,-21.1711 z" opacity="1"/><rect id="rect4192" width="21.34" height="21.34" x="733.463" y="701.643" fill="none" fill-opacity="1" stroke="#b7b7b7" stroke-dasharray="none" stroke-linecap="square" stroke-linejoin="miter" stroke-miterlimit="4" stroke-opacity="1" stroke-width="1.5" opacity="1" transform="matrix(0.70710678,0.70710678,-0.70710678,0.70710678,0,0)"/><path id="path4194" fill="none" fill-rule="evenodd" stroke="#b7b7b7" stroke-dasharray="none" stroke-linecap="butt" stroke-linejoin="miter" stroke-miterlimit="4" stroke-opacity="1" stroke-width=".8" d="m 7.41054,1029.8622 29.927443,0"/><path id="path4196" fill="none" fill-rule="evenodd" stroke="#b7b7b7" stroke-dasharray="none" stroke-linecap="butt" stroke-linejoin="miter" stroke-miterlimit="4" stroke-opacity="1" stroke-width=".8" d="m 10.18587,1032.8532 24.376783,0"/><path id="path4198" fill="none" fill-rule="evenodd" stroke="#b7b7b7" stroke-dasharray="none" stroke-linecap="butt" stroke-linejoin="miter" stroke-miterlimit="4" stroke-opacity="1" stroke-width=".8" d="m 13.06032,1035.7451 18.826122,0"/></g></svg>