<svg xmlns="http://www.w3.org/2000/svg" xmlns:svg="http://www.w3.org/2000/svg" id="svg5021" width="500" height="500" version="1.1" viewBox="0 0 500 500"><metadata id="metadata5026"/><g id="layer1" transform="translate(0,-552.36216)"><g id="g4420" transform="matrix(0.98497537,0,0,0.98497537,-160.97052,316.90466)"><path id="path4149" fill="#e8e8e8" fill-opacity="1" fill-rule="evenodd" stroke="#000" stroke-linecap="butt" stroke-linejoin="miter" stroke-opacity="1" stroke-width="1" d="m 166.67517,336.16405 9.59645,-28.28428 c 0,0 106.5711,-31.8198 115.66247,-31.8198 9.09137,0 98.40878,2.78221 132.83506,6.06091 2.65164,0.25254 11.36421,28.53682 11.36421,28.53682 l -1.76776,51.26524 -11.61676,82.8325 -46.97209,38.3858 -57.5787,22.72843 -83.33758,-25.75889 -41.92133,-15.15228 c 0,0 -10.6066,-8.5863 -10.6066,-12.62691 0,-4.04061 -17.1726,-92.42896 -15.65737,-116.16754 z"/><path id="path4151" fill="#c8c8c8" fill-opacity="1" fill-rule="evenodd" stroke="#000" stroke-linecap="butt" stroke-linejoin="miter" stroke-opacity="1" stroke-width="1" d="m 445.06128,331.14284 -1.07143,18.21428 -8.92857,15.35715 -10.71429,78.21428 -18.92857,13.21429 5.71429,110 11.78571,-0.71429 14.28572,-16.07143 0,11.07143 2.14285,5 1.42857,18.21429 1.42858,10 5.35714,1.07143 27.5,-12.14286 29.28571,-15.35714 12.85715,-10.71429 -7.5,-17.14286 -21.42857,-7.14285 -10,-28.21429 -6.07143,-4.28571 c 0,0 13.92857,-20 13.92857,-32.5 0,-12.5 7.5,-48.21429 7.5,-48.21429 l -19.28572,-74.28571 c 0,0 -2.14285,-3.61608 -3.21428,-3.92857 -4.14276,-1.20828 -26.07143,-9.64286 -26.07143,-9.64286 z"/><path id="path4262" fill="#a6a6a6" fill-opacity="1" fill-rule="evenodd" stroke="#000" stroke-linecap="butt" stroke-linejoin="miter" stroke-opacity="1" stroke-width="1" d="m 472.20414,499.71427 -35,49.64285 0,11.07143 2.14285,5 2.85715,28.21429 5.35714,1.07143 56.78571,-27.5 12.85715,-10.71429 -7.5,-17.14286 -21.42857,-7.14285 -10,-28.21429 z"/><path id="path4153" fill="#c8c8c8" fill-opacity="1" fill-rule="evenodd" stroke="#000" stroke-linecap="butt" stroke-linejoin="miter" stroke-opacity="1" stroke-width="1" d="m 246.9823,467.98895 -33.33503,32.32488 -34.34519,113.13709 1.51523,11.11168 c 0,0 20.94987,38.67851 35.35534,55.05331 3.63076,4.12711 7.88281,7.83009 12.6269,10.6066 10.71406,6.27049 22.85834,9.92206 34.85027,13.13199 11.04231,2.95574 22.44687,4.62679 33.84011,5.55584 10.73931,0.87572 21.60925,1.12915 32.32488,0 10.4427,-1.10039 20.80147,-3.38841 30.80965,-6.566 4.88826,-1.55202 9.89521,-3.1856 14.14214,-6.06091 4.53465,-3.07011 7.93572,-7.5623 11.61675,-11.61676 4.98457,-5.49024 9.38368,-11.48526 14.14214,-17.17259 2.8358,-3.38935 6.45331,-6.23114 8.58629,-10.10152 1.36217,-2.47171 2.52538,-8.08122 2.52538,-8.08122 L 390.92904,495.76815 360.62446,468.99911 c 0,0 -49.49747,-7.07107 -113.64216,-1.01016 z"/><path id="path4155" fill="#c8c8c8" fill-opacity="1" fill-rule="evenodd" stroke="#000" stroke-linecap="butt" stroke-linejoin="miter" stroke-opacity="1" stroke-width="1" d="m 184.35284,322.52699 12.62691,130.81475 46.46702,-4.04061 -0.50508,-10.10152 168.1904,-9.09138 3.03046,-136.87567 -72.73099,0 -113.64216,12.12183 -1.01015,10.10153 z"/><path id="path4218" fill="#a6a6a6" fill-opacity="1" fill-rule="evenodd" stroke="#000" stroke-linecap="butt" stroke-linejoin="miter" stroke-opacity="1" stroke-width="1" d="m 471.1099,365.39533 -1.50659,-1.50658 -8.10848,4.68144 1.81397,1.81397 8.09523,-4.67379 z"/><path id="path4239" fill="#a6a6a6" fill-opacity="1" fill-rule="evenodd" stroke="#000" stroke-linecap="butt" stroke-linejoin="miter" stroke-opacity="1" stroke-width="1" d="m 475.21704,382.18104 -1.50659,-1.50658 -8.10848,4.68144 1.81397,1.81397 8.09523,-4.67379 z"/><path id="path4241" fill="#a6a6a6" fill-opacity="1" fill-rule="evenodd" stroke="#000" stroke-linecap="butt" stroke-linejoin="miter" stroke-opacity="1" stroke-width="1" d="m 479.14561,400.39533 -1.50659,-1.50658 -8.10848,4.68144 1.81397,1.81397 8.09523,-4.67379 z"/><ellipse id="path4245" cx="-593.715" cy="731.938" fill="#a6a6a6" fill-opacity="1" stroke="#000" stroke-dasharray="none" stroke-linecap="round" stroke-linejoin="round" stroke-miterlimit="4" stroke-opacity="1" stroke-width="1.728" opacity="1" rx="13.701" ry="17.659" transform="matrix(-0.93124162,0.36440231,-0.13475751,0.99087861,0,0)"/><path id="path4247" fill="#838383" fill-opacity="1" fill-rule="evenodd" stroke="#000" stroke-linecap="butt" stroke-linejoin="miter" stroke-opacity="1" stroke-width="1" d="m 439.27937,523.45792 -9.01785,1.8877 c 0,0 -9.82143,-15.53572 7.32143,-33.57143 17.14285,-18.03572 20.71428,-10.89286 21.96428,-10 1.25,0.89285 1.31128,6.40428 1.31128,6.40428 0,0 -22.61713,1.5601 -21.57914,35.27945 z"/><path id="path4243" fill="#a6a6a6" fill-opacity="1" fill-rule="evenodd" stroke="#000" stroke-linecap="butt" stroke-linejoin="miter" stroke-opacity="1" stroke-width="1" d="m 423.45414,470.96427 c 0,0 -6.42857,4.82142 -6.96429,15 -0.53571,10.17857 0.53572,14.10714 0.53572,14.10714 l 5.35714,1.60714 6.42857,-2.85714 24.28571,-21.60714 3.57143,-14.10715 c 0,0 1.36881,-5.23733 0.35715,-7.5 -1.01166,-2.26267 -5.71429,-4.64285 -5.71429,-4.64285 z"/><rect id="rect4264" width="39.919" height="40.597" x="157.937" y="338.853" fill="#a6a6a6" fill-opacity="1" stroke="#000" stroke-dasharray="none" stroke-linecap="round" stroke-linejoin="round" stroke-miterlimit="4" stroke-opacity="1" stroke-width="1.106" opacity="1" rx="3.561" transform="matrix(0.99594406,-0.08997456,0.08997456,0.99594406,0,0)"/><rect id="rect4266" width="39.919" height="40.597" x="158.556" y="382.074" fill="#a6a6a6" fill-opacity="1" stroke="#000" stroke-dasharray="none" stroke-linecap="round" stroke-linejoin="round" stroke-miterlimit="4" stroke-opacity="1" stroke-width="1.106" opacity="1" rx="3.561" transform="matrix(0.99594406,-0.08997456,0.08997456,0.99594406,0,0)"/><rect id="rect4268" width="39.919" height="40.597" x="159.301" y="425.755" fill="#a6a6a6" fill-opacity="1" stroke="#000" stroke-dasharray="none" stroke-linecap="round" stroke-linejoin="round" stroke-miterlimit="4" stroke-opacity="1" stroke-width="1.106" opacity="1" rx="3.561" transform="matrix(0.99594406,-0.08997456,0.08997456,0.99594406,0,0)"/><rect id="rect4270" width="39.919" height="40.597" x="208.286" y="323.031" fill="#a6a6a6" fill-opacity="1" stroke="#000" stroke-dasharray="none" stroke-linecap="round" stroke-linejoin="round" stroke-miterlimit="4" stroke-opacity="1" stroke-width="1.106" opacity="1" rx="3.561" transform="matrix(0.99739095,-0.07218931,0.07218931,0.99739095,0,0)"/><rect id="rect4272" width="39.919" height="40.597" x="208.905" y="366.252" fill="#a6a6a6" fill-opacity="1" stroke="#000" stroke-dasharray="none" stroke-linecap="round" stroke-linejoin="round" stroke-miterlimit="4" stroke-opacity="1" stroke-width="1.106" opacity="1" rx="3.561" transform="matrix(0.99739095,-0.07218931,0.07218931,0.99739095,0,0)"/><rect id="rect4274" width="39.919" height="40.597" x="209.65" y="409.932" fill="#a6a6a6" fill-opacity="1" stroke="#000" stroke-dasharray="none" stroke-linecap="round" stroke-linejoin="round" stroke-miterlimit="4" stroke-opacity="1" stroke-width="1.106" opacity="1" rx="3.561" transform="matrix(0.99739095,-0.07218931,0.07218931,0.99739095,0,0)"/><rect id="rect4276" width="39.919" height="40.597" x="260.909" y="316.786" fill="#a6a6a6" fill-opacity="1" stroke="#000" stroke-dasharray="none" stroke-linecap="round" stroke-linejoin="round" stroke-miterlimit="4" stroke-opacity="1" stroke-width="1.106" opacity="1" rx="3.561" transform="matrix(0.99878772,-0.04922493,0.04922493,0.99878772,0,0)"/><rect id="rect4278" width="39.919" height="40.597" x="261.528" y="360.007" fill="#a6a6a6" fill-opacity="1" stroke="#000" stroke-dasharray="none" stroke-linecap="round" stroke-linejoin="round" stroke-miterlimit="4" stroke-opacity="1" stroke-width="1.106" opacity="1" rx="3.561" transform="matrix(0.99878772,-0.04922493,0.04922493,0.99878772,0,0)"/><rect id="rect4280" width="39.919" height="40.597" x="262.273" y="403.687" fill="#a6a6a6" fill-opacity="1" stroke="#000" stroke-dasharray="none" stroke-linecap="round" stroke-linejoin="round" stroke-miterlimit="4" stroke-opacity="1" stroke-width="1.106" opacity="1" rx="3.561" transform="matrix(0.99878772,-0.04922493,0.04922493,0.99878772,0,0)"/><rect id="rect4282" width="39.919" height="40.597" x="311.859" y="309.406" fill="#a6a6a6" fill-opacity="1" stroke="#000" stroke-dasharray="none" stroke-linecap="round" stroke-linejoin="round" stroke-miterlimit="4" stroke-opacity="1" stroke-width="1.106" opacity="1" rx="3.561" transform="matrix(0.99954285,-0.0302341,0.0302341,0.99954285,0,0)"/><rect id="rect4284" width="39.919" height="40.597" x="312.478" y="352.626" fill="#a6a6a6" fill-opacity="1" stroke="#000" stroke-dasharray="none" stroke-linecap="round" stroke-linejoin="round" stroke-miterlimit="4" stroke-opacity="1" stroke-width="1.106" opacity="1" rx="3.561" transform="matrix(0.99954285,-0.0302341,0.0302341,0.99954285,0,0)"/><rect id="rect4286" width="39.919" height="40.597" x="313.222" y="396.307" fill="#a6a6a6" fill-opacity="1" stroke="#000" stroke-dasharray="none" stroke-linecap="round" stroke-linejoin="round" stroke-miterlimit="4" stroke-opacity="1" stroke-width="1.106" opacity="1" rx="3.561" transform="matrix(0.99954285,-0.0302341,0.0302341,0.99954285,0,0)"/><rect id="rect4288" width="39.919" height="40.597" x="374.17" y="290.377" fill="#a6a6a6" fill-opacity="1" stroke="#000" stroke-dasharray="none" stroke-linecap="round" stroke-linejoin="round" stroke-miterlimit="4" stroke-opacity="1" stroke-width="1.106" opacity="1" rx="3.561" transform="matrix(0.99987165,0.01602153,-0.01602153,0.99987165,0,0)"/><rect id="rect4290" width="39.919" height="40.597" x="374.789" y="333.598" fill="#a6a6a6" fill-opacity="1" stroke="#000" stroke-dasharray="none" stroke-linecap="round" stroke-linejoin="round" stroke-miterlimit="4" stroke-opacity="1" stroke-width="1.106" opacity="1" rx="3.561" transform="matrix(0.99987165,0.01602153,-0.01602153,0.99987165,0,0)"/><rect id="rect4292" width="39.919" height="40.597" x="375.534" y="377.278" fill="#a6a6a6" fill-opacity="1" stroke="#000" stroke-dasharray="none" stroke-linecap="round" stroke-linejoin="round" stroke-miterlimit="4" stroke-opacity="1" stroke-width="1.106" opacity="1" rx="3.561" transform="matrix(0.99987165,0.01602153,-0.01602153,0.99987165,0,0)"/><path id="path4388" fill="#a6a6a6" fill-opacity="1" fill-rule="evenodd" stroke="#000" stroke-linecap="butt" stroke-linejoin="miter" stroke-opacity="1" stroke-width="1" d="m 459.64286,499.50506 3.75,-3.03572 -1.25,6.25 z"/></g><circle id="path4469" cx="406.573" cy="758.427" r="30.844" fill="#a6a6a6" fill-opacity="1" stroke="#000" stroke-dasharray="none" stroke-linecap="round" stroke-linejoin="round" stroke-miterlimit="4" stroke-opacity="1" stroke-width="1.591" opacity="1"/><path id="path4489" fill="#000" fill-opacity="1" stroke="#fff" stroke-dasharray="none" stroke-linecap="round" stroke-linejoin="round" stroke-miterlimit="4" stroke-opacity="1" stroke-width=".942" d="m 347.46815,778.90494 2.47071,4.90996 -36.01886,18.12477 2.3368,4.64387 36.01886,-18.12477 2.47029,4.90915 16.5348,-17.38293 -23.8126,2.91995 z" opacity="1"/><path id="path4471" fill="#a6a6a6" fill-opacity="1" stroke="#000" stroke-dasharray="none" stroke-linecap="round" stroke-linejoin="round" stroke-miterlimit="4" stroke-opacity="1" stroke-width="1.558" d="m 416.20647,747.0702 -19.26762,0 9.63381,-16.68624 z" opacity="1"/><text id="text4322" x="40.238" y="661.814" fill="#000" fill-opacity="1" stroke="#fff" stroke-dasharray="none" stroke-linecap="butt" stroke-linejoin="round" stroke-miterlimit="4" stroke-opacity="1" stroke-width=".866" font-family="Dejavu Sans Mono" font-size="23.388" font-stretch="normal" font-style="normal" font-variant="normal" font-weight="bold" letter-spacing="0" word-spacing="0" xml:space="preserve" style="line-height:125%;-inkscape-font-specification:'Dejavu Sans Mono Bold'"><tspan id="tspan4324" x="40.238" y="661.814" stroke-width=".866">1</tspan></text><text id="text4326" x="81.003" y="646.392" fill="#000" fill-opacity="1" stroke="#fff" stroke-dasharray="none" stroke-linecap="butt" stroke-linejoin="round" stroke-miterlimit="4" stroke-opacity="1" stroke-width=".866" font-family="Dejavu Sans Mono" font-size="23.388" font-stretch="normal" font-style="normal" font-variant="normal" font-weight="bold" letter-spacing="0" word-spacing="0" xml:space="preserve" style="line-height:125%;-inkscape-font-specification:'Dejavu Sans Mono Bold'"><tspan id="tspan4328" x="81.003" y="646.392" stroke-width=".866">2</tspan></text><text id="text4330" x="131.921" y="643.218" fill="#000" fill-opacity="1" stroke="#fff" stroke-dasharray="none" stroke-linecap="butt" stroke-linejoin="round" stroke-miterlimit="4" stroke-opacity="1" stroke-width=".866" font-family="Dejavu Sans Mono" font-size="23.388" font-stretch="normal" font-style="normal" font-variant="normal" font-weight="bold" letter-spacing="0" text-anchor="middle" word-spacing="0" xml:space="preserve" style="line-height:125%;-inkscape-font-specification:'Dejavu Sans Mono Bold';text-align:center"><tspan id="tspan4332" x="131.921" y="643.218" stroke-width=".866">3</tspan></text><text stroke-width=".866" style="line-height:125%;-inkscape-font-specification:'Dejavu Sans Mono Bold';text-align:center" id="text4334" x="175.765" y="639.939" fill="#000" fill-opacity="1" stroke="#fff" stroke-dasharray="none" stroke-linecap="butt" stroke-linejoin="round" stroke-miterlimit="4" stroke-opacity="1" font-family="Dejavu Sans Mono" font-size="23.388" font-stretch="normal" font-style="normal" font-variant="normal" font-weight="bold" letter-spacing="0" text-anchor="middle" word-spacing="0" xml:space="preserve"><tspan id="tspan4336" x="175.765" y="639.939" stroke-width=".866">4</tspan></text><text id="text4338" x="222.256" y="637.406" fill="#000" fill-opacity="1" stroke="#fff" stroke-dasharray="none" stroke-linecap="butt" stroke-linejoin="round" stroke-miterlimit="4" stroke-opacity="1" stroke-width=".866" font-family="Dejavu Sans Mono" font-size="23.388" font-stretch="normal" font-style="normal" font-variant="normal" font-weight="bold" letter-spacing="0" text-anchor="middle" word-spacing="0" xml:space="preserve" style="line-height:125%;-inkscape-font-specification:'Dejavu Sans Mono Bold';text-align:center"><tspan id="tspan4340" x="222.256" y="637.406" stroke-width=".866">5</tspan></text><text stroke-width=".866" style="line-height:125%;-inkscape-font-specification:'Dejavu Sans Mono Bold';text-align:center" id="text4346" x="221.807" y="679.868" fill="#000" fill-opacity="1" stroke="#fff" stroke-dasharray="none" stroke-linecap="butt" stroke-linejoin="round" stroke-miterlimit="4" stroke-opacity="1" font-family="Dejavu Sans Mono" font-size="23.388" font-stretch="normal" font-style="normal" font-variant="normal" font-weight="bold" letter-spacing="0" text-anchor="middle" word-spacing="0" xml:space="preserve"><tspan id="tspan4348" x="221.807" y="679.868" stroke-width=".866">10</tspan></text><text id="text4350" x="177.022" y="682.358" fill="#000" fill-opacity="1" stroke="#fff" stroke-dasharray="none" stroke-linecap="butt" stroke-linejoin="round" stroke-miterlimit="4" stroke-opacity="1" stroke-width=".866" font-family="Dejavu Sans Mono" font-size="23.388" font-stretch="normal" font-style="normal" font-variant="normal" font-weight="bold" letter-spacing="0" text-anchor="middle" word-spacing="0" xml:space="preserve" style="line-height:125%;-inkscape-font-specification:'Dejavu Sans Mono Bold';text-align:center"><tspan id="tspan4352" x="177.022" y="682.358" stroke-width=".866">9</tspan></text><text stroke-width=".866" style="line-height:125%;-inkscape-font-specification:'Dejavu Sans Mono Bold';text-align:center" id="text4354" x="133.985" y="685.593" fill="#000" fill-opacity="1" stroke="#fff" stroke-dasharray="none" stroke-linecap="butt" stroke-linejoin="round" stroke-miterlimit="4" stroke-opacity="1" font-family="Dejavu Sans Mono" font-size="23.388" font-stretch="normal" font-style="normal" font-variant="normal" font-weight="bold" letter-spacing="0" text-anchor="middle" word-spacing="0" xml:space="preserve"><tspan id="tspan4356" x="133.985" y="685.593" stroke-width=".866">8</tspan></text><text id="text4358" x="90.948" y="688.58" fill="#000" fill-opacity="1" stroke="#fff" stroke-dasharray="none" stroke-linecap="butt" stroke-linejoin="round" stroke-miterlimit="4" stroke-opacity="1" stroke-width=".866" font-family="Dejavu Sans Mono" font-size="23.388" font-stretch="normal" font-style="normal" font-variant="normal" font-weight="bold" letter-spacing="0" text-anchor="middle" word-spacing="0" xml:space="preserve" style="line-height:125%;-inkscape-font-specification:'Dejavu Sans Mono Bold';text-align:center"><tspan id="tspan4360" x="90.948" y="688.58" stroke-width=".866">7</tspan></text><text stroke-width=".866" style="line-height:125%;-inkscape-font-specification:'Dejavu Sans Mono Bold';text-align:center" id="text4362" x="49.403" y="704.003" fill="#000" fill-opacity="1" stroke="#fff" stroke-dasharray="none" stroke-linecap="butt" stroke-linejoin="round" stroke-miterlimit="4" stroke-opacity="1" font-family="Dejavu Sans Mono" font-size="23.388" font-stretch="normal" font-style="normal" font-variant="normal" font-weight="bold" letter-spacing="0" text-anchor="middle" word-spacing="0" xml:space="preserve"><tspan id="tspan4364" x="49.403" y="704.003" stroke-width=".866">6</tspan></text><text id="text4366" x="54.005" y="746.787" fill="#000" fill-opacity="1" stroke="#fff" stroke-dasharray="none" stroke-linecap="butt" stroke-linejoin="round" stroke-miterlimit="4" stroke-opacity="1" stroke-width=".866" font-family="Dejavu Sans Mono" font-size="23.388" font-stretch="normal" font-style="normal" font-variant="normal" font-weight="bold" letter-spacing="0" text-anchor="middle" word-spacing="0" xml:space="preserve" style="line-height:125%;-inkscape-font-specification:'Dejavu Sans Mono Bold';text-align:center"><tspan id="tspan4368" x="54.005" y="746.787" stroke-width=".866">11</tspan></text><text stroke-width=".866" style="line-height:125%;-inkscape-font-specification:'Dejavu Sans Mono Bold';text-align:center" id="text4370" x="94.785" y="731.439" fill="#000" fill-opacity="1" stroke="#fff" stroke-dasharray="none" stroke-linecap="butt" stroke-linejoin="round" stroke-miterlimit="4" stroke-opacity="1" font-family="Dejavu Sans Mono" font-size="23.388" font-stretch="normal" font-style="normal" font-variant="normal" font-weight="bold" letter-spacing="0" text-anchor="middle" word-spacing="0" xml:space="preserve"><tspan id="tspan4372" x="94.785" y="731.439" stroke-width=".866">12</tspan></text><text id="text4374" x="136.836" y="728.529" fill="#000" fill-opacity="1" stroke="#fff" stroke-dasharray="none" stroke-linecap="butt" stroke-linejoin="round" stroke-miterlimit="4" stroke-opacity="1" stroke-width=".866" font-family="Dejavu Sans Mono" font-size="23.388" font-stretch="normal" font-style="normal" font-variant="normal" font-weight="bold" letter-spacing="0" text-anchor="middle" word-spacing="0" xml:space="preserve" style="line-height:125%;-inkscape-font-specification:'Dejavu Sans Mono Bold';text-align:center"><tspan id="tspan4376" x="136.836" y="728.529" stroke-width=".866">13</tspan></text><text stroke-width=".866" style="line-height:125%;-inkscape-font-specification:'Dejavu Sans Mono Bold';text-align:center" id="text4378" x="179.057" y="725.341" fill="#000" fill-opacity="1" stroke="#fff" stroke-dasharray="none" stroke-linecap="butt" stroke-linejoin="round" stroke-miterlimit="4" stroke-opacity="1" font-family="Dejavu Sans Mono" font-size="23.388" font-stretch="normal" font-style="normal" font-variant="normal" font-weight="bold" letter-spacing="0" text-anchor="middle" word-spacing="0" xml:space="preserve"><tspan id="tspan4380" x="179.057" y="725.341" stroke-width=".866">14</tspan></text><text id="text4382" x="221.851" y="722.898" fill="#000" fill-opacity="1" stroke="#fff" stroke-dasharray="none" stroke-linecap="butt" stroke-linejoin="round" stroke-miterlimit="4" stroke-opacity="1" stroke-width=".866" font-family="Dejavu Sans Mono" font-size="23.388" font-stretch="normal" font-style="normal" font-variant="normal" font-weight="bold" letter-spacing="0" text-anchor="middle" word-spacing="0" xml:space="preserve" style="line-height:125%;-inkscape-font-specification:'Dejavu Sans Mono Bold';text-align:center"><tspan id="tspan4384" x="221.851" y="722.898" stroke-width=".866">15</tspan></text><text stroke-width=".866" style="line-height:125%;-inkscape-font-specification:'Dejavu Sans Mono Bold';text-align:center" id="text4461" x="164.113" y="842.314" fill="#000" fill-opacity="1" stroke="#fff" stroke-dasharray="none" stroke-linecap="butt" stroke-linejoin="round" stroke-miterlimit="4" stroke-opacity="1" font-family="Dejavu Sans Mono" font-size="23.388" font-stretch="normal" font-style="normal" font-variant="normal" font-weight="bold" letter-spacing="0" text-anchor="middle" word-spacing="0" xml:space="preserve"><tspan id="tspan4463" x="164.113" y="842.314" stroke-width=".866">MODE_SWITCH</tspan></text><text id="text4465" x="308.718" y="864.051" fill="#000" fill-opacity="1" stroke="#fff" stroke-dasharray="none" stroke-linecap="butt" stroke-linejoin="round" stroke-miterlimit="4" stroke-opacity="1" stroke-width=".866" font-family="Dejavu Sans Mono" font-size="23.388" font-stretch="normal" font-style="normal" font-variant="normal" font-weight="bold" letter-spacing="0" text-anchor="middle" word-spacing="0" xml:space="preserve" style="line-height:125%;-inkscape-font-specification:'Dejavu Sans Mono Bold';text-align:center"><tspan id="tspan4467" x="308.718" y="864.051" stroke-width=".866">THUMB</tspan></text><text id="text4473" x="407.925" y="725.295" fill="#000" fill-opacity="1" stroke="#fff" stroke-dasharray="none" stroke-linecap="butt" stroke-linejoin="round" stroke-miterlimit="4" stroke-opacity="1" stroke-width=".866" font-family="Dejavu Sans Mono" font-size="23.388" font-stretch="normal" font-style="normal" font-variant="normal" font-weight="bold" letter-spacing="0" text-anchor="middle" word-spacing="0" xml:space="preserve" style="line-height:125%;-inkscape-font-specification:'Dejavu Sans Mono Bold';text-align:center"><tspan id="tspan4475" x="407.925" y="725.295" stroke-width=".866">UP</tspan></text><text stroke-width=".866" style="line-height:125%;-inkscape-font-specification:'Dejavu Sans Mono Bold';text-align:center" id="text4477" x="457.018" y="765.818" fill="#000" fill-opacity="1" stroke="#fff" stroke-dasharray="none" stroke-linecap="butt" stroke-linejoin="round" stroke-miterlimit="4" stroke-opacity="1" font-family="Dejavu Sans Mono" font-size="23.388" font-stretch="normal" font-style="normal" font-variant="normal" font-weight="bold" letter-spacing="0" text-anchor="middle" word-spacing="0" xml:space="preserve"><tspan id="tspan4479" x="457.018" y="765.818" stroke-width=".866">RIGHT</tspan></text><text id="text4481" x="406.829" y="808.365" fill="#000" fill-opacity="1" stroke="#fff" stroke-dasharray="none" stroke-linecap="butt" stroke-linejoin="round" stroke-miterlimit="4" stroke-opacity="1" stroke-width=".866" font-family="Dejavu Sans Mono" font-size="23.388" font-stretch="normal" font-style="normal" font-variant="normal" font-weight="bold" letter-spacing="0" text-anchor="middle" word-spacing="0" xml:space="preserve" style="line-height:125%;-inkscape-font-specification:'Dejavu Sans Mono Bold';text-align:center"><tspan id="tspan4483" x="406.829" y="808.365" stroke-width=".866">DOWN</tspan></text><text stroke-width=".866" style="line-height:125%;-inkscape-font-specification:'Dejavu Sans Mono Bold';text-align:center" id="text4485" x="362.077" y="767.661" fill="#000" fill-opacity="1" stroke="#fff" stroke-dasharray="none" stroke-linecap="butt" stroke-linejoin="round" stroke-miterlimit="4" stroke-opacity="1" font-family="Dejavu Sans Mono" font-size="23.388" font-stretch="normal" font-style="normal" font-variant="normal" font-weight="bold" letter-spacing="0" text-anchor="middle" word-spacing="0" xml:space="preserve"><tspan id="tspan4487" x="362.077" y="767.661" stroke-width=".866">LEFT</tspan></text><path id="path4292" fill="#000" fill-opacity="1" stroke="#fff" stroke-dasharray="none" stroke-linecap="round" stroke-linejoin="round" stroke-miterlimit="4" stroke-opacity="1" stroke-width=".818" d="m 241.47509,796.58288 3.51076,4.28374 -23.16365,19.2936 3.3205,4.05156 23.16365,-19.29358 3.51018,4.28301 7.80287,-17.11517 -18.14448,4.49698 z" opacity="1"/></g></svg>