<svg xmlns="http://www.w3.org/2000/svg" xmlns:svg="http://www.w3.org/2000/svg" id="svg4424" width="45" height="45" version="1.1" viewBox="0 0 45 45"><metadata id="metadata4429"/><g id="layer1" transform="translate(0,-1007.3622)"><path id="path4141" fill="none" fill-opacity="1" fill-rule="evenodd" stroke="#b7b7b7" stroke-dasharray="none" stroke-linecap="butt" stroke-linejoin="miter" stroke-miterlimit="4" stroke-opacity="1" stroke-width="1.5" d="m 24.950155,1014.7048 c -5.120665,-0.1412 -11.366917,2.7208 -17.8854695,12.7599 -1.3605238,2.7663 -3.4583292,4.0769 -6.0287906,4.3187 a 21.477192,21.477192 0 0 0 21.3625761,19.4532 21.477192,21.477192 0 0 0 18.66695,-10.8869 c -16.46166,-15.7803 -3.553048,-18.8173 -3.553048,-18.8173 0,0 -5.078179,-6.6214 -12.562218,-6.8276 z"/><path id="path4136" fill="#b7b7b7" fill-opacity="1" stroke="none" stroke-dasharray="none" stroke-linecap="round" stroke-linejoin="round" stroke-miterlimit="4" stroke-opacity="1" stroke-width="3" d="M 22.499999,1007.3622 A 22.499916,22.499916 0 0 0 -3.3538264e-7,1029.8622 22.499916,22.499916 0 0 0 22.499999,1052.3622 a 22.499916,22.499916 0 0 0 22.5,-22.5 22.499916,22.499916 0 0 0 -22.5,-22.5 z m 0,1.3289 a 21.170375,21.170375 0 0 1 21.171163,21.1711 21.170375,21.170375 0 0 1 -21.171163,21.1696 21.170375,21.170375 0 0 1 -21.1695832,-21.1696 21.170375,21.170375 0 0 1 21.1695832,-21.1711 z" opacity="1"/><path id="path4153" fill="none" fill-rule="evenodd" stroke="#b7b7b7" stroke-dasharray="none" stroke-linecap="round" stroke-linejoin="miter" stroke-miterlimit="4" stroke-opacity="1" stroke-width=".8" d="m 37.403903,1021.4963 c 0,0 -13.891071,-5.0221 -17.961405,3.8794 -5.300106,11.5908 5.752442,25.9611 5.752442,25.9611"/></g></svg>