<svg xmlns="http://www.w3.org/2000/svg" xmlns:svg="http://www.w3.org/2000/svg" xmlns:xlink="http://www.w3.org/1999/xlink" id="svg2" width="256" height="256" version="1.1" viewBox="0 0 240 240"><defs id="defs4"><linearGradient id="linearGradient4989"><stop id="stop4985" offset="0" stop-color="#383838" stop-opacity=".2"/><stop id="stop4987" offset="1" stop-color="#000" stop-opacity="0"/></linearGradient><linearGradient id="linearGradient4602"><stop id="stop4598" offset="0" stop-color="#fff" stop-opacity=".259"/><stop id="stop4600" offset="1" stop-color="#fff" stop-opacity="0"/></linearGradient><marker id="Arrow1Lstart" orient="auto" overflow="visible" refX="0" refY="0"><path id="path4461" fill="#0f0" fill-opacity="1" fill-rule="evenodd" stroke="#000" stroke-opacity="1" stroke-width="1.333" d="M 0,0 5,-5 -12.5,0 5,5 Z" transform="matrix(0.8,0,0,0.8,10,0)"/></marker><filter id="filter4847" width="1.097" height="1.167" x="-.048" y="-.084" color-interpolation-filters="sRGB"><feGaussianBlur id="feGaussianBlur4849" stdDeviation="6.089"/></filter><radialGradient id="radialGradient4604" cx="12.187" cy="824.55" r="107.813" fx="12.187" fy="824.55" gradientTransform="matrix(1.9956845,1.9956845,-0.70710678,0.70710678,570.91023,217.18338)" gradientUnits="userSpaceOnUse" xlink:href="#linearGradient4602"/><linearGradient id="linearGradient4991" x1="32.605" x2="184.827" y1="59.146" y2="211.368" gradientUnits="userSpaceOnUse" xlink:href="#linearGradient4989"/><filter id="filter4999" width="1.096" height="1.096" x="-.048" y="-.048" color-interpolation-filters="sRGB"><feGaussianBlur id="feGaussianBlur5001" stdDeviation="4.313"/></filter><filter id="filter5054" width="1.083" height="1.115" x="-.041" y="-.057" color-interpolation-filters="sRGB"><feGaussianBlur id="feGaussianBlur5056" stdDeviation="3.285"/></filter></defs><metadata id="metadata7"/><g id="layer1" transform="translate(0,-812.36218)"><path id="path4993" fill="#000" fill-opacity="1" stroke="none" stroke-dasharray="none" stroke-linejoin="round" stroke-miterlimit="4" stroke-opacity="1" stroke-width="1.428" d="M 27.749218,824.54969 H 212.25158 c 8.62097,0 15.56132,6.94034 15.56132,15.56131 v 184.5024 c 0,8.6208 -6.94035,15.5613 -15.56132,15.5613 H 27.749218 c -8.62097,0 -15.56131,-6.9404 -15.56131,-15.5613 V 840.111 c 0,-8.62097 6.94034,-15.56131 15.56131,-15.56131 z" filter="url(#filter4999)" opacity=".2"/><path id="path4546" fill="#1ec01e" fill-opacity="1" stroke="none" stroke-dasharray="none" stroke-linejoin="round" stroke-miterlimit="4" stroke-opacity="1" stroke-width="1.428" d="M 27.749218,824.54969 H 212.25158 c 8.62097,0 15.56132,6.94034 15.56132,15.56131 v 184.5024 c 0,8.6208 -6.94035,15.5613 -15.56132,15.5613 H 27.749218 c -8.62097,0 -15.56131,-6.9404 -15.56131,-15.5613 V 840.111 c 0,-8.62097 6.94034,-15.56131 15.56131,-15.56131 z"/><path id="path5003" fill="#000" fill-opacity="1" fill-rule="evenodd" stroke="none" stroke-dasharray="none" stroke-linecap="round" stroke-linejoin="round" stroke-miterlimit="4" stroke-opacity="1" stroke-width="1.491" d="M 80.302734 59.146484 L 40.304688 82.240234 L 32.605469 114.24023 L 80.302734 141.77734 L 128 169.31445 L 175.69922 196.85352 L 223.39453 169.31445 L 215.69727 137.31641 L 199.78906 128.13086 L 221.9707 115.32422 L 214.27344 83.324219 L 174.27539 60.230469 L 134.27539 83.324219 L 132.80078 89.457031 L 128 86.685547 L 122.17969 90.046875 L 120.30078 82.240234 L 80.302734 59.146484 z" filter="url(#filter5054)" opacity=".2" transform="matrix(0.93749996,0,0,0.93749996,0,812.36218)"/><path id="path4822" fill="url(#linearGradient4991)" fill-opacity="1" fill-rule="evenodd" stroke="none" stroke-dasharray="none" stroke-linecap="round" stroke-linejoin="round" stroke-miterlimit="4" stroke-opacity="1" stroke-width="1.491" d="M 80.302734 59.146484 L 40.304688 82.240234 L 32.605469 114.24023 L 161.36523 243 L 226.40234 243 C 235.59805 243 243 235.59591 243 226.40039 L 243 112.05078 L 214.27344 83.324219 L 174.27539 60.230469 L 134.27539 83.324219 L 132.80078 89.457031 L 128 86.685547 L 125.9375 87.876953 L 120.30078 82.240234 L 80.302734 59.146484 z" transform="matrix(0.93749996,0,0,0.93749996,0,812.36218)"/><path id="rect4705" fill="#fff" fill-opacity=".995" stroke="none" stroke-dasharray="none" stroke-linejoin="round" stroke-miterlimit="4" stroke-opacity="1" stroke-width="1.428" d="m 27.749218,824.54969 c -8.620969,0 -15.562133,6.94116 -15.562133,15.56213 v 3.75 c 0,-8.62097 6.941164,-15.56213 15.562133,-15.56213 H 212.24994 c 8.62097,0 15.56213,6.94116 15.56213,15.56213 v -3.75 c 0,-8.62097 -6.94116,-15.56213 -15.56213,-15.56213 z" opacity=".2"/><path id="path4553" fill="#000" fill-opacity=".995" stroke="none" stroke-dasharray="none" stroke-linejoin="round" stroke-miterlimit="4" stroke-opacity="1" stroke-width="1.428" d="m 27.749218,1040.1747 c -8.620969,0 -15.562133,-6.9412 -15.562133,-15.5621 v -3.75 c 0,8.6209 6.941164,15.5621 15.562133,15.5621 H 212.24994 c 8.62097,0 15.56213,-6.9412 15.56213,-15.5621 v 3.75 c 0,8.6209 -6.94116,15.5621 -15.56213,15.5621 z" opacity=".2"/><path id="path4596" fill="url(#radialGradient4604)" fill-opacity="1" stroke="none" stroke-dasharray="none" stroke-linejoin="round" stroke-miterlimit="4" stroke-opacity="1" stroke-width="1.428" d="M 27.749218,824.54969 H 212.25158 c 8.62097,0 15.56132,6.94034 15.56132,15.56131 v 184.5024 c 0,8.6208 -6.94035,15.5613 -15.56132,15.5613 H 27.749218 c -8.62097,0 -15.56131,-6.9404 -15.56131,-15.5613 V 840.111 c 0,-8.62097 6.94034,-15.56131 15.56131,-15.56131 z"/><path id="path4588" fill="#464646" fill-opacity="1" stroke="none" stroke-width=".4" d="m 163.38237,868.82872 -37.49863,21.64983 -7.21751,29.99999 44.7175,25.81606 44.71479,-25.81606 -7.21752,-29.99999 z"/><path id="path4586" fill="#464646" fill-opacity="1" stroke="none" stroke-width=".4" d="m 75.283576,867.81325 -37.498625,21.64983 -7.217523,29.99999 44.717512,25.81605 44.71478,-25.81605 -7.21752,-29.99999 z"/><path id="path4584" fill="#464646" fill-opacity="1" stroke="none" stroke-width=".4" d="m 120.00001,893.62975 -37.498622,21.64983 -7.217524,29.99999 44.717516,25.81607 44.71478,-25.81607 -7.21752,-29.99999 z"/><path id="path4569" fill="#464646" fill-opacity="1" stroke="none" stroke-width=".4" d="m 164.7164,919.44593 -37.49862,21.64984 -7.21752,30.00002 44.71751,25.81604 44.71478,-25.81604 -7.21752,-30.00002 z"/><g id="g4602" stroke="none" stroke-dasharray="none" stroke-miterlimit="4" stroke-opacity="1" stroke-width="1.875" transform="matrix(0.74526914,0,0,0.74526914,30.567966,237.50138)"><path id="path4725" fill="#505050" fill-opacity="1" fill-rule="evenodd" stroke="none" stroke-dasharray="none" stroke-linecap="round" stroke-linejoin="round" stroke-miterlimit="4" stroke-opacity="1" stroke-width="1.875" d="M 9.6837315,874.80034 -5.7592167e-6,915.0532 60.000281,949.69369 60.000185,903.85 Z"/><path id="path4727" fill="#3c3c3c" fill-opacity="1" fill-rule="evenodd" stroke="none" stroke-dasharray="none" stroke-linecap="round" stroke-linejoin="round" stroke-miterlimit="4" stroke-opacity="1" stroke-width="1.875" d="m 60.000281,903.85 50.315409,-29.04966 9.68372,40.25286 -59.999032,34.64049 z"/><path id="path4736" fill="#505050" fill-opacity="1" fill-rule="evenodd" stroke="none" stroke-dasharray="none" stroke-linecap="round" stroke-linejoin="round" stroke-miterlimit="4" stroke-opacity="1" stroke-width="1.875" d="m 127.89343,876.16389 -9.68374,40.25285 60.00029,34.6405 -1e-4,-45.84369 z"/><path id="path4738" fill="#3c3c3c" fill-opacity="1" fill-rule="evenodd" stroke="none" stroke-dasharray="none" stroke-linecap="round" stroke-linejoin="round" stroke-miterlimit="4" stroke-opacity="1" stroke-width="1.875" d="m 178.20998,905.21355 50.31541,-29.04966 9.68372,40.25285 -59.99904,34.6405 z"/><path id="path4689" fill="#505050" fill-opacity="1" fill-rule="evenodd" stroke="none" stroke-dasharray="none" stroke-linecap="round" stroke-linejoin="round" stroke-miterlimit="4" stroke-opacity="1" stroke-width="1.875" d="m 69.684019,909.44084 -9.683738,40.25285 60.000289,34.64049 -10e-5,-45.84369 z"/><path id="path4691" fill="#3c3c3c" fill-opacity="1" fill-rule="evenodd" stroke="none" stroke-dasharray="none" stroke-linecap="round" stroke-linejoin="round" stroke-miterlimit="4" stroke-opacity="1" stroke-width="1.875" d="m 120.00057,938.49049 50.31541,-29.04965 9.68372,40.25285 -59.99904,34.64049 z"/><path id="path4723" fill="#464646" fill-opacity="1" stroke="none" stroke-dasharray="none" stroke-linecap="round" stroke-linejoin="round" stroke-miterlimit="4" stroke-opacity="1" stroke-width="1.875" d="M 60.000281,845.74967 9.6838281,874.80034 60.000281,903.85 110.31569,874.80034 Z"/><path id="path4730" fill="#464646" fill-opacity="1" stroke="none" stroke-dasharray="none" stroke-linecap="round" stroke-linejoin="round" stroke-miterlimit="4" stroke-opacity="1" stroke-width="1.875" d="m 178.20998,847.11322 -50.31645,29.05067 50.31645,29.04966 50.31541,-29.04966 z"/><path id="path4687" fill="#464646" fill-opacity="1" stroke="none" stroke-dasharray="none" stroke-linecap="round" stroke-linejoin="round" stroke-miterlimit="4" stroke-opacity="1" stroke-width="1.875" d="m 120.00057,880.39016 -50.316455,29.05068 50.316455,29.04965 50.31541,-29.04965 z"/><path id="path4705" fill="#464646" fill-opacity="1" stroke="none" stroke-dasharray="none" stroke-linecap="round" stroke-linejoin="round" stroke-miterlimit="4" stroke-opacity="1" stroke-width="1.875" d="m 180.00086,915.03065 -50.31646,29.05068 50.31646,29.04965 50.31541,-29.04965 z"/><path id="path4707" fill="#505050" fill-opacity="1" fill-rule="evenodd" stroke="none" stroke-dasharray="none" stroke-linecap="round" stroke-linejoin="round" stroke-miterlimit="4" stroke-opacity="1" stroke-width="1.875" d="m 129.68441,944.08133 -9.68374,40.25285 60.00029,34.64052 -1e-4,-45.84372 z"/><path id="path4709" fill="#3c3c3c" fill-opacity="1" fill-rule="evenodd" stroke="none" stroke-dasharray="none" stroke-linecap="round" stroke-linejoin="round" stroke-miterlimit="4" stroke-opacity="1" stroke-width="1.875" d="m 180.00086,973.13098 50.31541,-29.04965 9.68372,40.25285 -59.99904,34.64052 z"/></g><g id="g4777" transform="matrix(0.39998839,0,0,0.39998839,424.32266,225.65291)"><path id="path4733" fill="#1ec01e" fill-opacity="1" stroke="none" stroke-linecap="butt" stroke-linejoin="miter" stroke-opacity="1" stroke-width="4.662" d="m -850.11611,1661.4995 q 1.53566,-0.887 1.45649,-1.9729 -0.0796,-1.0857 -1.45644,-1.8809 l -19.1696,-11.0718 q -1.53572,-0.887 -3.44189,-0.8259 -1.90669,0.061 -3.23048,0.8259 l -1.95918,1.1316 q -1.53584,0.887 -1.5095,1.9729 0.0267,1.0856 1.45655,1.9114 l 19.1696,11.0718 q 1.53572,0.887 3.41556,0.8412 1.87989,-0.046 3.30971,-0.8718 z m 17.15762,-2e-4 -36.32725,20.9816 q -1.37669,0.7951 -3.28289,0.8256 -1.90684,0.031 -3.38959,-0.8255 l -1.8534,-1.0705 q -1.53571,-0.8869 -1.53552,-1.9575 1.2e-4,-1.0706 1.48271,-1.9269 l 10.48534,-6.056 q 1.53538,-0.8868 1.48242,-1.9879 -0.0527,-1.1011 -1.42958,-1.8964 l -19.16961,-11.0718 q -1.53572,-0.887 -3.44229,-0.8257 -1.90629,0.061 -3.28286,0.8562 l -10.48533,6.0561 q -1.53584,0.887 -3.36255,0.8716 -1.82717,-0.015 -3.36289,-0.9021 l -1.85339,-1.0705 q -1.53572,-0.887 -1.50904,-1.9423 0.0266,-1.0553 1.50916,-1.9116 l 36.32725,-20.9815 q 1.37657,-0.7951 3.28291,-0.8257 1.90623,-0.03 3.389,0.826 l 36.32694,20.9814 q 1.53569,0.8869 1.53594,1.9267 -2.7e-4,1.04 -1.53548,1.9267 z" font-family="Razer Blackwidow" font-size="medium" font-stretch="normal" font-style="normal" font-variant="normal" font-weight="normal" letter-spacing="0" word-spacing="0" style="line-height:23.43749809px;-inkscape-font-specification:'Razer Blackwidow'"/><path id="path4578" fill="#1ec01e" fill-opacity="1" stroke="none" stroke-linecap="butt" stroke-linejoin="miter" stroke-opacity="1" stroke-width="4.662" d="m -657.66589,1673.9802 1.95935,1.1316 q 1.53572,0.887 3.44195,0.8259 1.90663,-0.061 3.23047,-0.8259 l 27.74838,-16.0266 q 1.37657,-0.7951 3.2828,-0.8256 1.90634,-0.031 3.44207,0.8564 l 1.85338,1.0704 q 1.53572,0.887 1.5095,1.9421 -0.0266,1.0552 -1.5091,1.9114 l -36.32731,20.9817 q -1.37663,0.7951 -3.2828,0.8256 -1.90685,0.031 -3.38956,-0.8256 l -36.32697,-20.9814 q -1.53567,-0.887 -1.50905,-1.9422 0.0267,-1.0553 1.50916,-1.9116 l 36.32731,-20.9816 q 1.37657,-0.795 3.28274,-0.8256 1.9064,-0.031 3.38911,0.8258 l 1.85339,1.0705 q 1.53566,0.8869 1.53595,1.9573 -1.2e-4,1.0705 -1.4826,1.9268 l -27.74837,16.0266 q -1.53572,0.887 -1.48305,1.9577 0.0532,1.0703 1.48299,1.8961 l 1.90635,1.1011 q 1.53572,0.8869 3.46839,0.8411 1.93313,-0.046 3.25698,-0.8106 l 27.74837,-16.0266 q 1.58851,-0.9175 3.36232,-0.9021 1.77382,0.015 3.30954,0.9023 l 1.85344,1.0705 q 1.3768,0.7952 1.43004,1.8961 0.0528,1.1011 -1.42964,1.9574 l -27.74837,16.0266 q -1.53572,0.887 -1.5095,1.9424 0.0267,1.055 1.56234,1.942 z" font-family="Razer Blackwidow" font-size="medium" font-stretch="normal" font-style="normal" font-variant="normal" font-weight="normal" letter-spacing="0" word-spacing="0" style="line-height:23.43749809px;-inkscape-font-specification:'Razer Blackwidow'"/><path id="path4699" fill="#1ec01e" fill-opacity="1" stroke="none" stroke-linecap="butt" stroke-linejoin="miter" stroke-opacity="1" stroke-width="4.662" d="m -766.12306,1712.2486 q -1.53584,0.887 -1.5095,1.9729 0.0268,1.0856 1.45655,1.9114 l 27.74833,16.0267 q 1.58859,0.9175 1.562,1.9422 -0.0263,1.0244 -1.56209,1.9115 l -19.06382,11.0107 q -1.58856,0.9175 -3.38896,0.8869 -1.80082,-0.03 -3.28353,-0.8868 l -36.32699,-20.9814 q -1.58862,-0.9176 -1.58839,-1.9576 0.0527,-1.0092 1.58856,-1.8963 l 1.85361,-1.0706 q 1.53538,-0.8867 3.38894,-0.8869 1.8535,10e-5 3.33621,0.8564 l 27.74832,16.0267 q 1.53566,0.8869 3.44189,0.8258 1.90668,-0.061 3.23059,-0.8259 l 1.9064,-1.1011 q 1.53538,-0.8868 1.48248,-1.9879 -0.0528,-1.1012 -1.42964,-1.8964 l -27.74832,-16.0266 q -1.58862,-0.9175 -1.5889,-1.9573 0.0532,-1.0095 1.58907,-1.8965 l 19.1166,-11.0412 q 1.53521,-0.8867 3.36237,-0.8716 1.82677,0.015 3.30948,0.8718 l 36.32699,20.9815 q 1.53569,0.8869 1.50955,1.9419 -0.0265,1.0552 -1.50912,1.9115 l -1.85379,1.0707 q -1.53566,0.887 -3.38881,0.8868 -1.85354,10e-5 -3.33625,-0.8563 l -27.74834,-16.0266 q -1.53566,-0.887 -3.41544,-0.8412 -1.87984,0.046 -3.25687,0.8412 z" font-family="Razer Blackwidow" font-size="medium" font-stretch="normal" font-style="normal" font-variant="normal" font-weight="normal" letter-spacing="0" word-spacing="0" style="line-height:23.43749809px;-inkscape-font-specification:'Razer Blackwidow'"/><path id="path4719" fill="#1ec01e" fill-opacity="1" stroke="none" stroke-linecap="butt" stroke-linejoin="miter" stroke-opacity="1" stroke-width="4.662" d="m -652.36967,1801.6575 q 1.53566,0.8869 3.44195,0.8258 1.90657,-0.061 3.23047,-0.826 l 19.16938,-11.0717 q 1.53566,-0.8869 1.45655,-1.9728 -0.0796,-1.0857 -1.45644,-1.8809 l -19.16966,-11.0718 q -1.53566,-0.887 -3.44189,-0.826 -1.90668,0.061 -3.23048,0.826 l -19.16938,11.0717 q -1.53583,0.887 -1.4831,1.9576 0.0532,1.0704 1.48293,1.8962 z m -36.32731,-11.0718 q -1.53561,-0.8869 -1.50899,-1.9422 0.0266,-1.0553 1.50922,-1.9116 l 36.32725,-20.9815 q 1.37657,-0.7951 3.28286,-0.8257 1.90623,-0.031 3.38894,0.8259 l 31.08446,17.9535 q 3.65392,2.1104 3.62783,4.9699 -0.0265,2.8597 -3.62753,4.9396 l -25.84192,14.9255 q -3.65411,2.1105 -8.60507,2.0951 -4.9516,-0.015 -8.55258,-2.095 z" font-family="Razer Blackwidow" font-size="medium" font-stretch="normal" font-style="normal" font-variant="normal" font-weight="normal" letter-spacing="0" word-spacing="0" style="line-height:23.43749809px;-inkscape-font-specification:'Razer Blackwidow'"/></g><g id="g4787" filter="url(#filter4847)" transform="matrix(0.39998839,0,0,0.39998839,424.32266,225.65291)"><path id="path4779" fill="#1ec01e" fill-opacity="1" stroke="none" stroke-linecap="butt" stroke-linejoin="miter" stroke-opacity="1" stroke-width="4.662" d="m -850.11611,1661.4995 q 1.53566,-0.887 1.45649,-1.9729 -0.0796,-1.0857 -1.45644,-1.8809 l -19.1696,-11.0718 q -1.53572,-0.887 -3.44189,-0.8259 -1.90669,0.061 -3.23048,0.8259 l -1.95918,1.1316 q -1.53584,0.887 -1.5095,1.9729 0.0267,1.0856 1.45655,1.9114 l 19.1696,11.0718 q 1.53572,0.887 3.41556,0.8412 1.87989,-0.046 3.30971,-0.8718 z m 17.15762,-2e-4 -36.32725,20.9816 q -1.37669,0.7951 -3.28289,0.8256 -1.90684,0.031 -3.38959,-0.8255 l -1.8534,-1.0705 q -1.53571,-0.8869 -1.53552,-1.9575 1.2e-4,-1.0706 1.48271,-1.9269 l 10.48534,-6.056 q 1.53538,-0.8868 1.48242,-1.9879 -0.0527,-1.1011 -1.42958,-1.8964 l -19.16961,-11.0718 q -1.53572,-0.887 -3.44229,-0.8257 -1.90629,0.061 -3.28286,0.8562 l -10.48533,6.0561 q -1.53584,0.887 -3.36255,0.8716 -1.82717,-0.015 -3.36289,-0.9021 l -1.85339,-1.0705 q -1.53572,-0.887 -1.50904,-1.9423 0.0266,-1.0553 1.50916,-1.9116 l 36.32725,-20.9815 q 1.37657,-0.7951 3.28291,-0.8257 1.90623,-0.03 3.389,0.826 l 36.32694,20.9814 q 1.53569,0.8869 1.53594,1.9267 -2.7e-4,1.04 -1.53548,1.9267 z" font-family="Razer Blackwidow" font-size="medium" font-stretch="normal" font-style="normal" font-variant="normal" font-weight="normal" letter-spacing="0" word-spacing="0" style="line-height:23.43749809px;-inkscape-font-specification:'Razer Blackwidow'"/><path id="path4781" fill="#1ec01e" fill-opacity="1" stroke="none" stroke-linecap="butt" stroke-linejoin="miter" stroke-opacity="1" stroke-width="4.662" d="m -657.66589,1673.9802 1.95935,1.1316 q 1.53572,0.887 3.44195,0.8259 1.90663,-0.061 3.23047,-0.8259 l 27.74838,-16.0266 q 1.37657,-0.7951 3.2828,-0.8256 1.90634,-0.031 3.44207,0.8564 l 1.85338,1.0704 q 1.53572,0.887 1.5095,1.9421 -0.0266,1.0552 -1.5091,1.9114 l -36.32731,20.9817 q -1.37663,0.7951 -3.2828,0.8256 -1.90685,0.031 -3.38956,-0.8256 l -36.32697,-20.9814 q -1.53567,-0.887 -1.50905,-1.9422 0.0267,-1.0553 1.50916,-1.9116 l 36.32731,-20.9816 q 1.37657,-0.795 3.28274,-0.8256 1.9064,-0.031 3.38911,0.8258 l 1.85339,1.0705 q 1.53566,0.8869 1.53595,1.9573 -1.2e-4,1.0705 -1.4826,1.9268 l -27.74837,16.0266 q -1.53572,0.887 -1.48305,1.9577 0.0532,1.0703 1.48299,1.8961 l 1.90635,1.1011 q 1.53572,0.8869 3.46839,0.8411 1.93313,-0.046 3.25698,-0.8106 l 27.74837,-16.0266 q 1.58851,-0.9175 3.36232,-0.9021 1.77382,0.015 3.30954,0.9023 l 1.85344,1.0705 q 1.3768,0.7952 1.43004,1.8961 0.0528,1.1011 -1.42964,1.9574 l -27.74837,16.0266 q -1.53572,0.887 -1.5095,1.9424 0.0267,1.055 1.56234,1.942 z" font-family="Razer Blackwidow" font-size="medium" font-stretch="normal" font-style="normal" font-variant="normal" font-weight="normal" letter-spacing="0" word-spacing="0" style="line-height:23.43749809px;-inkscape-font-specification:'Razer Blackwidow'"/><path id="path4783" fill="#1ec01e" fill-opacity="1" stroke="none" stroke-linecap="butt" stroke-linejoin="miter" stroke-opacity="1" stroke-width="4.662" d="m -766.12306,1712.2486 q -1.53584,0.887 -1.5095,1.9729 0.0268,1.0856 1.45655,1.9114 l 27.74833,16.0267 q 1.58859,0.9175 1.562,1.9422 -0.0263,1.0244 -1.56209,1.9115 l -19.06382,11.0107 q -1.58856,0.9175 -3.38896,0.8869 -1.80082,-0.03 -3.28353,-0.8868 l -36.32699,-20.9814 q -1.58862,-0.9176 -1.58839,-1.9576 0.0527,-1.0092 1.58856,-1.8963 l 1.85361,-1.0706 q 1.53538,-0.8867 3.38894,-0.8869 1.8535,10e-5 3.33621,0.8564 l 27.74832,16.0267 q 1.53566,0.8869 3.44189,0.8258 1.90668,-0.061 3.23059,-0.8259 l 1.9064,-1.1011 q 1.53538,-0.8868 1.48248,-1.9879 -0.0528,-1.1012 -1.42964,-1.8964 l -27.74832,-16.0266 q -1.58862,-0.9175 -1.5889,-1.9573 0.0532,-1.0095 1.58907,-1.8965 l 19.1166,-11.0412 q 1.53521,-0.8867 3.36237,-0.8716 1.82677,0.015 3.30948,0.8718 l 36.32699,20.9815 q 1.53569,0.8869 1.50955,1.9419 -0.0265,1.0552 -1.50912,1.9115 l -1.85379,1.0707 q -1.53566,0.887 -3.38881,0.8868 -1.85354,10e-5 -3.33625,-0.8563 l -27.74834,-16.0266 q -1.53566,-0.887 -3.41544,-0.8412 -1.87984,0.046 -3.25687,0.8412 z" font-family="Razer Blackwidow" font-size="medium" font-stretch="normal" font-style="normal" font-variant="normal" font-weight="normal" letter-spacing="0" word-spacing="0" style="line-height:23.43749809px;-inkscape-font-specification:'Razer Blackwidow'"/><path id="path4785" fill="#1ec01e" fill-opacity="1" stroke="none" stroke-linecap="butt" stroke-linejoin="miter" stroke-opacity="1" stroke-width="4.662" d="m -652.36967,1801.6575 q 1.53566,0.8869 3.44195,0.8258 1.90657,-0.061 3.23047,-0.826 l 19.16938,-11.0717 q 1.53566,-0.8869 1.45655,-1.9728 -0.0796,-1.0857 -1.45644,-1.8809 l -19.16966,-11.0718 q -1.53566,-0.887 -3.44189,-0.826 -1.90668,0.061 -3.23048,0.826 l -19.16938,11.0717 q -1.53583,0.887 -1.4831,1.9576 0.0532,1.0704 1.48293,1.8962 z m -36.32731,-11.0718 q -1.53561,-0.8869 -1.50899,-1.9422 0.0266,-1.0553 1.50922,-1.9116 l 36.32725,-20.9815 q 1.37657,-0.7951 3.28286,-0.8257 1.90623,-0.031 3.38894,0.8259 l 31.08446,17.9535 q 3.65392,2.1104 3.62783,4.9699 -0.0265,2.8597 -3.62753,4.9396 l -25.84192,14.9255 q -3.65411,2.1105 -8.60507,2.0951 -4.9516,-0.015 -8.55258,-2.095 z" font-family="Razer Blackwidow" font-size="medium" font-stretch="normal" font-style="normal" font-variant="normal" font-weight="normal" letter-spacing="0" word-spacing="0" style="line-height:23.43749809px;-inkscape-font-specification:'Razer Blackwidow'"/></g></g></svg>